<svg xmlns="http://www.w3.org/2000/svg" viewBox="0 0 1840 1240">
  <defs>
    <pattern id="grid" width="40" height="40" patternUnits="userSpaceOnUse">
      <path d="M40 0H0V40" fill="none" stroke="#1e293b" stroke-width="0.7"/>
    </pattern>
    <linearGradient id="titleLine" x1="0" y1="0" x2="1" y2="0">
      <stop offset="0" stop-color="#22d3ee"/>
      <stop offset="0.55" stop-color="#34d399"/>
      <stop offset="1" stop-color="#fbbf24"/>
    </linearGradient>
    <filter id="shadow" x="-20%" y="-20%" width="140%" height="150%">
      <feDropShadow dx="0" dy="10" stdDeviation="9" flood-color="#020617" flood-opacity="0.55"/>
    </filter>
    <marker id="arrow-cyan" markerWidth="12" markerHeight="9" refX="11" refY="4.5" orient="auto">
      <polygon points="0 0,12 4.5,0 9" fill="#22d3ee"/>
    </marker>
    <style>
      text{font-family:'Noto Sans SC','PingFang SC','Microsoft YaHei',sans-serif;letter-spacing:0}
      .title{font-size:50px;font-weight:800;fill:#f8fafc}
      .subtitle{font-size:22px;fill:#94a3b8}
      .number{font-size:16px;font-weight:800;fill:#0f172a}
      .stage{font-size:27px;font-weight:800;fill:#f8fafc}
      .role{font-size:16px;fill:#94a3b8}
      .card-title{font-size:20px;font-weight:750;fill:#f8fafc}
      .company{font-size:16px;fill:#dbeafe}
      .detail{font-size:14px;fill:#94a3b8}
      .footer-title{font-size:20px;font-weight:750;fill:#f8fafc}
      .footer-text{font-size:16px;fill:#cbd5e1}
      .tiny{font-size:14px;fill:#64748b}
    </style>
  </defs>

  <rect width="1840" height="1240" fill="#0f172a"/>
  <rect width="1840" height="1240" fill="url(#grid)"/>
  <rect x="64" y="46" width="124" height="6" rx="3" fill="url(#titleLine)"/>
  <text x="64" y="108" class="title">半导体设备产业链图谱</text>
  <text x="66" y="148" class="subtitle">AI与存储扩产 → 核心零部件国产化 → 前道设备放量 → 先进封装与测试兑现</text>

  <g stroke="#22d3ee" stroke-width="4" fill="none" marker-end="url(#arrow-cyan)" opacity="0.72">
    <path d="M445 574H483"/>
    <path d="M879 574H917"/>
    <path d="M1313 574H1351"/>
  </g>

  <g transform="translate(54 190)" filter="url(#shadow)">
    <rect width="390" height="794" rx="16" fill="#0f172a"/>
    <rect width="390" height="794" rx="16" fill="rgba(8,51,68,0.38)" stroke="#22d3ee" stroke-width="2"/>
    <circle cx="42" cy="42" r="19" fill="#22d3ee"/>
    <text x="42" y="48" class="number" text-anchor="middle">01</text>
    <text x="72" y="49" class="stage">核心零部件</text>
    <text x="28" y="82" class="role">设备精度、洁净度与国产化深度的底座</text>

    <g transform="translate(24 108)">
      <rect width="342" height="112" rx="8" fill="#0f172a"/>
      <rect width="342" height="112" rx="8" fill="rgba(8,51,68,0.48)" stroke="#22d3ee"/>
      <text x="18" y="31" class="card-title">精密工艺与结构件</text>
      <text x="18" y="59" class="company">富创精密｜先锋精科｜华亚智能</text>
      <text x="18" y="88" class="detail">腔体 / 内衬 / 加热器 / 匀气盘</text>
    </g>
    <g transform="translate(24 236)">
      <rect width="342" height="112" rx="8" fill="#0f172a"/>
      <rect width="342" height="112" rx="8" fill="rgba(6,78,59,0.4)" stroke="#34d399"/>
      <text x="18" y="31" class="card-title">射频电源与真空系统</text>
      <text x="18" y="59" class="company">恒运昌｜新莱应材</text>
      <text x="18" y="88" class="detail">等离子体电源 / 高洁净管路 / 真空腔体</text>
    </g>
    <g transform="translate(24 364)">
      <rect width="342" height="112" rx="8" fill="#0f172a"/>
      <rect width="342" height="112" rx="8" fill="rgba(76,29,149,0.38)" stroke="#a78bfa"/>
      <text x="18" y="31" class="card-title">晶体生长设备</text>
      <text x="18" y="59" class="company">晶升股份</text>
      <text x="18" y="88" class="detail">单晶硅炉 / 8英寸碳化硅炉 / 外延延伸</text>
    </g>
    <g transform="translate(24 492)">
      <rect width="342" height="112" rx="8" fill="#0f172a"/>
      <rect width="342" height="112" rx="8" fill="rgba(59,130,246,0.3)" stroke="#60a5fa"/>
      <text x="18" y="31" class="card-title">光学系统</text>
      <text x="18" y="59" class="company">茂莱光学｜福晶科技</text>
      <text x="18" y="88" class="detail">DUV物镜 / 光学模组 / 非线性光学晶体</text>
    </g>
    <g transform="translate(24 620)">
      <rect width="342" height="112" rx="8" fill="#0f172a"/>
      <rect width="342" height="112" rx="8" fill="rgba(120,53,15,0.32)" stroke="#fbbf24"/>
      <text x="18" y="31" class="card-title">电子特气</text>
      <text x="18" y="59" class="company">中船特气｜华特气体</text>
      <text x="18" y="88" class="detail">光刻气认证 / NF₃ / WF₆ / 高纯气体</text>
    </g>
  </g>

  <g transform="translate(488 190)" filter="url(#shadow)">
    <rect width="390" height="794" rx="16" fill="#0f172a"/>
    <rect width="390" height="794" rx="16" fill="rgba(6,78,59,0.3)" stroke="#34d399" stroke-width="2"/>
    <circle cx="42" cy="42" r="19" fill="#34d399"/>
    <text x="42" y="48" class="number" text-anchor="middle">02</text>
    <text x="72" y="49" class="stage">前道晶圆设备</text>
    <text x="28" y="82" class="role">资本开支与设备国产替代的核心主战场</text>

    <g transform="translate(24 108)">
      <rect width="342" height="94" rx="8" fill="#0f172a"/>
      <rect width="342" height="94" rx="8" fill="rgba(8,51,68,0.48)" stroke="#22d3ee"/>
      <text x="18" y="29" class="card-title">刻蚀 / 平台型设备</text>
      <text x="18" y="57" class="company">中微公司｜北方华创</text>
      <text x="18" y="80" class="detail">CCP / ICP / 热处理 / DRAM份额</text>
    </g>
    <g transform="translate(24 216)">
      <rect width="342" height="94" rx="8" fill="#0f172a"/>
      <rect width="342" height="94" rx="8" fill="rgba(6,78,59,0.42)" stroke="#34d399"/>
      <text x="18" y="29" class="card-title">薄膜沉积</text>
      <text x="18" y="57" class="company">拓荆科技｜微导纳米</text>
      <text x="18" y="80" class="detail">PECVD / ALD / HBM / 3D NAND</text>
    </g>
    <g transform="translate(24 324)">
      <rect width="342" height="94" rx="8" fill="#0f172a"/>
      <rect width="342" height="94" rx="8" fill="rgba(59,130,246,0.3)" stroke="#60a5fa"/>
      <text x="18" y="29" class="card-title">清洗设备</text>
      <text x="18" y="57" class="company">盛美上海</text>
      <text x="18" y="80" class="detail">兆声波清洗 / 电镀 / 炉管 / 平台化</text>
    </g>
    <g transform="translate(24 432)">
      <rect width="342" height="94" rx="8" fill="#0f172a"/>
      <rect width="342" height="94" rx="8" fill="rgba(76,29,149,0.38)" stroke="#a78bfa"/>
      <text x="18" y="29" class="card-title">涂胶显影</text>
      <text x="18" y="57" class="company">芯源微</text>
      <text x="18" y="80" class="detail">光刻联机配套 / 主流晶圆厂验证</text>
    </g>
    <g transform="translate(24 540)">
      <rect width="342" height="94" rx="8" fill="#0f172a"/>
      <rect width="342" height="94" rx="8" fill="rgba(120,53,15,0.32)" stroke="#fbbf24"/>
      <text x="18" y="29" class="card-title">CMP抛光</text>
      <text x="18" y="57" class="company">华海清科</text>
      <text x="18" y="80" class="detail">先进逻辑 / 存储平坦化 / 12英寸产线</text>
    </g>
    <g transform="translate(24 648)">
      <rect width="342" height="94" rx="8" fill="#0f172a"/>
      <rect width="342" height="94" rx="8" fill="rgba(136,19,55,0.34)" stroke="#fb7185"/>
      <text x="18" y="29" class="card-title">量检测</text>
      <text x="18" y="57" class="company">中科飞测</text>
      <text x="18" y="80" class="detail">缺陷检测 / 三维形貌 / 低国产化难点</text>
    </g>
  </g>

  <g transform="translate(922 190)" filter="url(#shadow)">
    <rect width="390" height="794" rx="16" fill="#0f172a"/>
    <rect width="390" height="794" rx="16" fill="rgba(76,29,149,0.28)" stroke="#a78bfa" stroke-width="2"/>
    <circle cx="42" cy="42" r="19" fill="#a78bfa"/>
    <text x="42" y="48" class="number" text-anchor="middle">03</text>
    <text x="72" y="49" class="stage">后道封装测试</text>
    <text x="28" y="82" class="role">先进封装扩产带来更快的订单与利润弹性</text>

    <g transform="translate(24 120)">
      <rect width="342" height="128" rx="8" fill="#0f172a"/>
      <rect width="342" height="128" rx="8" fill="rgba(8,51,68,0.48)" stroke="#22d3ee"/>
      <text x="18" y="34" class="card-title">激光划片与封装</text>
      <text x="18" y="66" class="company">大族激光</text>
      <text x="18" y="98" class="detail">划片 / 隐切 / 打标 / 封装产线建设</text>
    </g>
    <g transform="translate(24 270)">
      <rect width="342" height="128" rx="8" fill="#0f172a"/>
      <rect width="342" height="128" rx="8" fill="rgba(6,78,59,0.42)" stroke="#34d399"/>
      <text x="18" y="34" class="card-title">直写光刻</text>
      <text x="18" y="66" class="company">芯碁微装</text>
      <text x="18" y="98" class="detail">WLP / 掩模版 / 高密度互连</text>
    </g>
    <g transform="translate(24 420)">
      <rect width="342" height="128" rx="8" fill="#0f172a"/>
      <rect width="342" height="128" rx="8" fill="rgba(59,130,246,0.3)" stroke="#60a5fa"/>
      <text x="18" y="34" class="card-title">半导体测试机</text>
      <text x="18" y="66" class="company">华峰测控</text>
      <text x="18" y="98" class="detail">模拟 / 数模混合 / 功率器件测试</text>
    </g>
    <g transform="translate(24 570)">
      <rect width="342" height="128" rx="8" fill="#0f172a"/>
      <rect width="342" height="128" rx="8" fill="rgba(120,53,15,0.32)" stroke="#fbbf24"/>
      <text x="18" y="34" class="card-title">测试 / 分选 / 探针</text>
      <text x="18" y="66" class="company">长川科技</text>
      <text x="18" y="98" class="detail">测试机 / 分选机 / 探针台</text>
    </g>
  </g>

  <g transform="translate(1356 190)" filter="url(#shadow)">
    <rect width="430" height="794" rx="16" fill="#0f172a"/>
    <rect width="430" height="794" rx="16" fill="rgba(120,53,15,0.24)" stroke="#fbbf24" stroke-width="2"/>
    <circle cx="42" cy="42" r="19" fill="#fbbf24"/>
    <text x="42" y="48" class="number" text-anchor="middle">04</text>
    <text x="72" y="49" class="stage">下游需求端</text>
    <text x="28" y="82" class="role">需求通过资本开支、招标与验证向设备端传导</text>

    <g transform="translate(24 126)">
      <rect width="382" height="142" rx="8" fill="#0f172a"/>
      <rect width="382" height="142" rx="8" fill="rgba(8,51,68,0.48)" stroke="#22d3ee"/>
      <text x="20" y="38" class="card-title">晶圆代工</text>
      <text x="20" y="72" class="company">中芯国际｜华虹半导体</text>
      <text x="20" y="106" class="detail">先进逻辑 + 成熟制程</text>
      <text x="20" y="128" class="detail">设备招标与国产验证</text>
    </g>
    <g transform="translate(24 302)">
      <rect width="382" height="142" rx="8" fill="#0f172a"/>
      <rect width="382" height="142" rx="8" fill="rgba(6,78,59,0.42)" stroke="#34d399"/>
      <text x="20" y="38" class="card-title">存储IDM</text>
      <text x="20" y="72" class="company">长江存储｜长鑫科技</text>
      <text x="20" y="106" class="detail">DRAM / HBM / 3D NAND扩产</text>
      <text x="20" y="128" class="detail">刻蚀、沉积、清洗、量检测高弹性</text>
    </g>
    <g transform="translate(24 478)">
      <rect width="382" height="142" rx="8" fill="#0f172a"/>
      <rect width="382" height="142" rx="8" fill="rgba(76,29,149,0.38)" stroke="#a78bfa"/>
      <text x="20" y="38" class="card-title">封装与测试</text>
      <text x="20" y="72" class="company">长电科技｜通富微电｜华天科技</text>
      <text x="20" y="106" class="detail">TSV / Chiplet / 晶圆级封装</text>
      <text x="20" y="128" class="detail">后道设备第二增长曲线</text>
    </g>
    <g transform="translate(24 654)">
      <rect width="382" height="84" rx="8" fill="#0f172a"/>
      <rect width="382" height="84" rx="8" fill="rgba(136,19,55,0.28)" stroke="#fb7185"/>
      <text x="20" y="34" class="card-title">核心校验指标</text>
      <text x="20" y="64" class="detail">CAPEX / 招标 / 验证 / 现金流 / 存货</text>
    </g>
  </g>

  <g transform="translate(54 1022)">
    <rect width="1732" height="142" rx="14" fill="#0f172a"/>
    <rect width="1732" height="142" rx="14" fill="rgba(30,41,59,0.62)" stroke="#475569"/>
    <text x="28" y="38" class="footer-title">研究主线</text>
    <text x="28" y="74" class="footer-text">① AI与存储扩产决定订单水位　② 国产替代由整机进入核心零部件深水区　③ 前道看验证与份额　④ 后道看先进封装与利润弹性</text>
    <text x="28" y="108" class="footer-text">动态追踪：晶圆厂CAPEX｜设备招标｜先进制程验证｜射频/真空/光学国产化｜毛利率、现金流与存货</text>
  </g>
  <text x="56" y="1208" class="tiny">产业链研究库 · 半导体设备 · 2026.06.12</text>
</svg>
