<svg xmlns="http://www.w3.org/2000/svg" viewBox="0 0 1840 1240">
  <defs>
    <linearGradient id="bg" x1="0" y1="0" x2="1" y2="1">
      <stop offset="0" stop-color="#07111f"/>
      <stop offset="0.52" stop-color="#10253b"/>
      <stop offset="1" stop-color="#081018"/>
    </linearGradient>
    <linearGradient id="blue" x1="0" y1="0" x2="1" y2="1">
      <stop offset="0" stop-color="#19c8ff"/>
      <stop offset="1" stop-color="#63f2c1"/>
    </linearGradient>
    <linearGradient id="gold" x1="0" y1="0" x2="1" y2="1">
      <stop offset="0" stop-color="#ffd166"/>
      <stop offset="1" stop-color="#ff8f70"/>
    </linearGradient>
    <pattern id="grid" width="42" height="42" patternUnits="userSpaceOnUse">
      <path d="M42 0H0V42" fill="none" stroke="#74a7c8" stroke-width="0.7" opacity="0.16"/>
    </pattern>
    <filter id="shadow">
      <feDropShadow dx="0" dy="12" stdDeviation="10" flood-color="#000" flood-opacity="0.32"/>
    </filter>
    <marker id="arrow" markerWidth="14" markerHeight="14" refX="11" refY="7" orient="auto">
      <path d="M0,0 L14,7 L0,14 z" fill="#69e7ff"/>
    </marker>
    <style>
      .title{font-family:PingFang SC,Microsoft YaHei,Arial,sans-serif;font-size:52px;font-weight:800;fill:#f7fbff}
      .sub{font-family:PingFang SC,Microsoft YaHei,Arial,sans-serif;font-size:24px;fill:#a9c4d9}
      .stage{font-family:PingFang SC,Microsoft YaHei,Arial,sans-serif;font-size:34px;font-weight:800;fill:#f7fbff}
      .desc{font-family:PingFang SC,Microsoft YaHei,Arial,sans-serif;font-size:20px;fill:#a9c4d9}
      .cardTitle{font-family:PingFang SC,Microsoft YaHei,Arial,sans-serif;font-size:24px;font-weight:800;fill:#f7fbff}
      .item{font-family:PingFang SC,Microsoft YaHei,Arial,sans-serif;font-size:20px;fill:#dbe8f2}
      .small{font-family:PingFang SC,Microsoft YaHei,Arial,sans-serif;font-size:18px;fill:#9cb3c7}
    </style>
  </defs>
  <rect width="1840" height="1240" fill="url(#bg)"/>
  <rect width="1840" height="1240" fill="url(#grid)"/>
  <text x="92" y="86" class="title">半导体设备产业链图谱</text>
  <text x="94" y="126" class="sub">AI与存储扩产 → 核心零部件国产化 → 前道设备放量 → 先进封装与测试兑现</text>
  <g transform="translate(92 170)" filter="url(#shadow)">
    <rect x="0" y="0" width="500" height="780" rx="24" fill="#0d2233" stroke="#1fc8ff" stroke-width="2.5"/>
    <text x="34" y="56" class="stage">上游：核心零部件及材料</text>
    <text x="34" y="90" class="desc">决定设备可靠性、洁净度、精度与国产化深度</text>
    <g transform="translate(34 128)">
      <rect width="432" height="130" rx="16" fill="#102f45" stroke="#20d4ff"/>
      <text x="24" y="40" class="cardTitle">精密零部件</text>
      <text x="24" y="76" class="item">富创精密｜先锋精科｜华亚智能</text>
      <text x="24" y="108" class="small">腔体 / 内衬 / 加热器 / 匀气盘</text>
    </g>
    <g transform="translate(34 286)">
      <rect width="432" height="130" rx="16" fill="#102f45" stroke="#20d4ff"/>
      <text x="24" y="40" class="cardTitle">射频电源与真空系统</text>
      <text x="24" y="76" class="item">恒运昌｜新莱应材</text>
      <text x="24" y="108" class="small">等离子体电源 / 高洁净管路 / 真空系统</text>
    </g>
    <g transform="translate(34 444)">
      <rect width="432" height="130" rx="16" fill="#14352f" stroke="#5cf2b6"/>
      <text x="24" y="40" class="cardTitle">晶体生长与光学系统</text>
      <text x="24" y="76" class="item">晶升股份｜茂莱光学｜福晶科技</text>
      <text x="24" y="108" class="small">单晶炉 / DUV物镜 / 光学模组 / 晶体</text>
    </g>
    <g transform="translate(34 602)">
      <rect width="432" height="130" rx="16" fill="#2b2a19" stroke="#ffd166"/>
      <text x="24" y="40" class="cardTitle">电子特气</text>
      <text x="24" y="76" class="item">中船特气｜华特气体</text>
      <text x="24" y="108" class="small">光刻气认证 / NF3 / WF6 / 高纯气体</text>
    </g>
  </g>
  <g transform="translate(670 170)" filter="url(#shadow)">
    <rect x="0" y="0" width="560" height="780" rx="24" fill="#0d2233" stroke="#5cf2b6" stroke-width="2.5"/>
    <text x="34" y="56" class="stage">中游：半导体设备制造</text>
    <text x="34" y="90" class="desc">前道核心装备 + 后道封装测试，订单进入兑现期</text>
    <g transform="translate(34 128)">
      <rect width="492" height="116" rx="16" fill="#102f45" stroke="#20d4ff"/>
      <text x="24" y="38" class="cardTitle">刻蚀 / 平台型设备</text>
      <text x="24" y="74" class="item">中微公司｜北方华创</text>
      <text x="24" y="100" class="small">CCP / ICP / 热处理 / 清洗 / DRAM份额</text>
    </g>
    <g transform="translate(34 268)">
      <rect width="492" height="116" rx="16" fill="#14352f" stroke="#5cf2b6"/>
      <text x="24" y="38" class="cardTitle">薄膜沉积</text>
      <text x="24" y="74" class="item">拓荆科技｜微导纳米</text>
      <text x="24" y="100" class="small">PECVD / ALD / 3D NAND堆叠 / HBM</text>
    </g>
    <g transform="translate(34 408)">
      <rect width="492" height="136" rx="16" fill="#102f45" stroke="#20d4ff"/>
      <text x="24" y="38" class="cardTitle">清洗 / CMP / 涂胶显影 / 量检测</text>
      <text x="24" y="76" class="item">盛美上海｜芯源微｜华海清科｜中科飞测</text>
      <text x="24" y="108" class="small">国产化率分化，量检测仍是高价值低国产化环节</text>
    </g>
    <g transform="translate(34 568)">
      <rect width="492" height="136" rx="16" fill="#2b2a19" stroke="#ffd166"/>
      <text x="24" y="38" class="cardTitle">后道封装与测试设备</text>
      <text x="24" y="76" class="item">大族激光｜芯碁微装｜长川科技｜华峰测控</text>
      <text x="24" y="108" class="small">激光划片 / 直写光刻 / 测试 / 分选 / 探针</text>
    </g>
  </g>
  <g transform="translate(1308 170)" filter="url(#shadow)">
    <rect x="0" y="0" width="440" height="780" rx="24" fill="#0d2233" stroke="#ffd166" stroke-width="2.5"/>
    <text x="34" y="56" class="stage">下游：晶圆制造与封测</text>
    <text x="34" y="90" class="desc">需求来自AI芯片、存储扩产与先进封装</text>
    <g transform="translate(34 132)">
      <rect width="372" height="132" rx="16" fill="#102f45" stroke="#20d4ff"/>
      <text x="24" y="42" class="cardTitle">晶圆代工</text>
      <text x="24" y="80" class="item">中芯国际｜华虹半导体</text>
      <text x="24" y="110" class="small">先进逻辑 / 成熟制程 / 国产设备导入</text>
    </g>
    <g transform="translate(34 302)">
      <rect width="372" height="132" rx="16" fill="#14352f" stroke="#5cf2b6"/>
      <text x="24" y="42" class="cardTitle">存储IDM</text>
      <text x="24" y="80" class="item">长江存储｜长鑫科技</text>
      <text x="24" y="110" class="small">DRAM / HBM / 3D NAND扩产拉动设备需求</text>
    </g>
    <g transform="translate(34 472)">
      <rect width="372" height="132" rx="16" fill="#2b2a19" stroke="#ffd166"/>
      <text x="24" y="42" class="cardTitle">先进封装与测试</text>
      <text x="24" y="80" class="item">长电科技｜通富微电｜华天科技</text>
      <text x="24" y="110" class="small">TSV / CoWoS / Chiplet带动封装与测试设备</text>
    </g>
    <g transform="translate(34 642)">
      <rect width="372" height="74" rx="16" fill="#162b3a" stroke="#46677e"/>
      <text x="24" y="46" class="item">AI算力需求是主传导源</text>
    </g>
  </g>
  <g stroke="#69e7ff" stroke-width="4" fill="none" marker-end="url(#arrow)" opacity="0.92">
    <path d="M592 560H650"/>
    <path d="M1230 560H1288"/>
  </g>
  <g transform="translate(92 1010)" filter="url(#shadow)">
    <rect width="1656" height="142" rx="24" fill="#0c1d2b" stroke="#304c64"/>
    <text x="34" y="46" class="cardTitle">动态追踪主线</text>
    <text x="34" y="88" class="item">1. 晶圆厂CAPEX与存储扩产  2. 前道订单与客户验证  3. 核心零部件国产化  4. 后道封测设备兑现  5. 毛利率、现金流与存货</text>
  </g>
  <text x="92" y="1200" class="small">产业链研究库 · 半导体设备 · 2026.06.04</text>
</svg>
