<svg viewBox="0 0 1200 675" xmlns="http://www.w3.org/2000/svg">
  <defs>
    <linearGradient id="bg" x1="0" y1="0" x2="1" y2="1">
      <stop offset="0%" stop-color="#07111f"/>
      <stop offset="48%" stop-color="#0f2a28"/>
      <stop offset="100%" stop-color="#152033"/>
    </linearGradient>
    <radialGradient id="glow" cx="72%" cy="42%" r="48%">
      <stop offset="0%" stop-color="#34d399" stop-opacity="0.42"/>
      <stop offset="55%" stop-color="#22d3ee" stop-opacity="0.12"/>
      <stop offset="100%" stop-color="#0f172a" stop-opacity="0"/>
    </radialGradient>
    <pattern id="grid" width="42" height="42" patternUnits="userSpaceOnUse">
      <path d="M42 0H0V42" fill="none" stroke="#203143" stroke-width="0.8"/>
    </pattern>
    <filter id="soft" x="-40%" y="-40%" width="180%" height="180%">
      <feGaussianBlur stdDeviation="12"/>
    </filter>
    <style>
      text{font-family:"PingFang SC","Noto Sans SC","Microsoft YaHei",Arial,sans-serif}
      .muted{fill:#9fb4c7}
      .white{fill:#f8fafc}
      .green{fill:#34d399}
      .cyan{fill:#22d3ee}
    </style>
  </defs>
  <rect width="1200" height="675" fill="url(#bg)"/>
  <rect width="1200" height="675" fill="url(#grid)" opacity="0.42"/>
  <rect width="1200" height="675" fill="url(#glow)"/>

  <g opacity="0.28">
    <circle cx="1030" cy="118" r="112" fill="#22d3ee" filter="url(#soft)"/>
    <circle cx="870" cy="535" r="150" fill="#34d399" filter="url(#soft)"/>
  </g>

  <g transform="translate(705 150)">
    <rect x="0" y="0" width="340" height="210" rx="18" fill="#081826" stroke="#22d3ee" stroke-width="2"/>
    <rect x="28" y="38" width="58" height="132" rx="10" fill="#0e2b34" stroke="#34d399" stroke-width="3"/>
    <rect x="106" y="38" width="58" height="132" rx="10" fill="#0e2b34" stroke="#34d399" stroke-width="3"/>
    <rect x="184" y="38" width="58" height="132" rx="10" fill="#0e2b34" stroke="#34d399" stroke-width="3"/>
    <rect x="262" y="38" width="50" height="132" rx="10" fill="#0e2b34" stroke="#34d399" stroke-width="3"/>
    <path d="M55 156L86 101H61L83 55L37 112H64Z" fill="#fbbf24"/>
    <path d="M133 156L164 101H139L161 55L115 112H142Z" fill="#fbbf24"/>
    <path d="M211 156L242 101H217L239 55L193 112H220Z" fill="#fbbf24"/>
    <path d="M286 156L313 105H292L309 62L269 114H291Z" fill="#fbbf24"/>
    <path d="M-76 252C2 212 78 230 138 264C210 304 288 310 394 248" fill="none" stroke="#22d3ee" stroke-width="5" stroke-linecap="round" opacity="0.9"/>
    <path d="M-70 290C36 260 106 276 180 316C246 352 328 344 416 304" fill="none" stroke="#34d399" stroke-width="5" stroke-linecap="round" opacity="0.72"/>
    <circle cx="-78" cy="252" r="9" fill="#22d3ee"/>
    <circle cx="394" cy="248" r="9" fill="#22d3ee"/>
    <circle cx="-70" cy="290" r="9" fill="#34d399"/>
    <circle cx="416" cy="304" r="9" fill="#34d399"/>
  </g>

  <g transform="translate(82 92)">
    <rect x="0" y="0" width="152" height="34" rx="17" fill="rgba(52,211,153,0.12)" stroke="#34d399"/>
    <text x="76" y="23" text-anchor="middle" font-size="16" font-weight="700" class="green">产业链深度解析</text>
    <text x="0" y="122" font-size="96" font-weight="900" class="white">储能</text>
    <text x="4" y="176" font-size="34" font-weight="700" class="cyan">从上游材料到下游应用全梳理</text>
    <text x="4" y="224" font-size="22" class="muted">AI配储刚需 · TWh时代 · 算电协同 · 全球装机高增</text>
  </g>

  <g transform="translate(86 410)">
    <rect x="0" y="0" width="788" height="86" rx="18" fill="rgba(15,23,42,0.72)" stroke="#2dd4bf"/>
    <text x="36" y="54" font-size="23" font-weight="800" class="white">材料</text>
    <path d="M125 43H220" stroke="#64748b" stroke-width="3" marker-end="url(#arrow)"/>
    <text x="248" y="54" font-size="23" font-weight="800" class="white">电芯 / PCS</text>
    <path d="M394 43H489" stroke="#64748b" stroke-width="3" marker-end="url(#arrow)"/>
    <text x="518" y="54" font-size="23" font-weight="800" class="white">系统集成</text>
    <path d="M648 43H730" stroke="#64748b" stroke-width="3" marker-end="url(#arrow)"/>
  </g>

  <g transform="translate(86 548)">
    <rect x="0" y="0" width="124" height="38" rx="19" fill="#0e2b34" stroke="#34d399"/>
    <text x="62" y="25" text-anchor="middle" font-size="16" font-weight="700" class="green">AI配储</text>
    <rect x="144" y="0" width="126" height="38" rx="19" fill="#172554" stroke="#60a5fa"/>
    <text x="207" y="25" text-anchor="middle" font-size="16" font-weight="700" fill="#93c5fd">TWh时代</text>
    <rect x="290" y="0" width="136" height="38" rx="19" fill="#431407" stroke="#fbbf24"/>
    <text x="358" y="25" text-anchor="middle" font-size="16" font-weight="700" fill="#fde68a">价格修复</text>
  </g>

  <defs>
    <marker id="arrow" markerWidth="12" markerHeight="8" refX="11" refY="4" orient="auto">
      <polygon points="0 0,12 4,0 8" fill="#64748b"/>
    </marker>
  </defs>
</svg>
