<svg xmlns="http://www.w3.org/2000/svg" width="1600" height="900" viewBox="0 0 1600 900">
  <defs>
    <linearGradient id="bg" x1="0" y1="0" x2="1" y2="1"><stop offset="0" stop-color="#06121f"/><stop offset="0.5" stop-color="#132640"/><stop offset="1" stop-color="#080f18"/></linearGradient>
    <linearGradient id="optic" x1="0" y1="0" x2="1" y2="1"><stop offset="0" stop-color="#20d4ff"/><stop offset="0.52" stop-color="#8b5cf6"/><stop offset="1" stop-color="#5cf2b6"/></linearGradient>
    <pattern id="grid" width="44" height="44" patternUnits="userSpaceOnUse"><path d="M44 0H0V44" fill="none" stroke="#77a8c8" stroke-width="0.7" opacity="0.16"/></pattern>
    <filter id="glow"><feGaussianBlur stdDeviation="8" result="b"/><feMerge><feMergeNode in="b"/><feMergeNode in="SourceGraphic"/></feMerge></filter>
  </defs>
  <rect width="1600" height="900" fill="url(#bg)"/>
  <rect width="1600" height="900" fill="url(#grid)" opacity="0.55"/>
  <path d="M0 714 C270 620 480 790 760 700 S1190 560 1600 650 L1600 900 L0 900Z" fill="#14334c" opacity="0.44"/>
  <g transform="translate(870 170)" filter="url(#glow)">
    <rect x="62" y="180" width="455" height="170" rx="36" fill="#08131c" stroke="url(#optic)" stroke-width="5"/>
    <rect x="118" y="218" width="148" height="94" rx="18" fill="#0e2c3d" stroke="#20d4ff" stroke-width="2"/>
    <rect x="318" y="218" width="128" height="94" rx="18" fill="#17243f" stroke="#8b5cf6" stroke-width="2"/>
    <g stroke="#5cf2b6" stroke-width="11" stroke-linecap="round">
      <path d="M0 225H62M0 265H62M0 305H62"/>
      <path d="M517 225h72M517 265h72M517 305h72"/>
    </g>
    <g stroke="#20d4ff" stroke-width="5" fill="none" opacity="0.9">
      <path d="M192 218C252 118 365 118 384 218"/>
      <path d="M192 312C252 420 365 420 384 312"/>
      <path d="M100 72C230 130 405 130 540 72"/>
      <path d="M100 452C230 392 405 392 540 452"/>
    </g>
    <text x="118" y="145" fill="#e9fbff" font-family="PingFang SC, Microsoft YaHei, Arial" font-size="40" font-weight="800">800G / 1.6T / CPO</text>
  </g>
  <g transform="translate(128 148)" font-family="PingFang SC, Microsoft YaHei, Arial">
    <text x="0" y="0" fill="#7be7ff" font-size="34" font-weight="700">产业链深度解析</text>
    <text x="0" y="94" fill="#f7fbff" font-size="86" font-weight="800">光模块产业链</text>
    <text x="0" y="166" fill="#f7fbff" font-size="54" font-weight="800">AI算力网络的光互联底座</text>
    <rect x="0" y="218" width="760" height="4" rx="2" fill="url(#optic)"/>
    <text x="0" y="282" fill="#c7d7e8" font-size="31">800G/1.6T放量 + CPO硅光 + 光芯片紧缺</text>
  </g>
  <g transform="translate(132 560)" font-family="PingFang SC, Microsoft YaHei, Arial">
    <g><rect width="248" height="104" rx="18" fill="#0d2637" stroke="#20d4ff"/><text x="28" y="43" fill="#fff" font-size="28" font-weight="700">上游</text><text x="28" y="78" fill="#a9c1d6" font-size="21">光芯片 / 材料 / 封装</text></g>
    <g transform="translate(286 0)"><rect width="248" height="104" rx="18" fill="#18233f" stroke="#8b5cf6"/><text x="28" y="43" fill="#fff" font-size="28" font-weight="700">中游</text><text x="28" y="78" fill="#a9c1d6" font-size="21">光器件 / 光模块</text></g>
    <g transform="translate(572 0)"><rect width="248" height="104" rx="18" fill="#112d2f" stroke="#5cf2b6"/><text x="28" y="43" fill="#fff" font-size="28" font-weight="700">下游</text><text x="28" y="78" fill="#a9c1d6" font-size="21">CPO / 光纤 / 智算网</text></g>
  </g>
  <text x="132" y="810" fill="#7f97ad" font-family="PingFang SC, Microsoft YaHei, Arial" font-size="24">产业链研究库 · 2026.06.04</text>
</svg>
