<svg xmlns="http://www.w3.org/2000/svg" width="1600" height="900" viewBox="0 0 1600 900">
  <defs>
    <linearGradient id="bg" x1="0" y1="0" x2="1" y2="1"><stop offset="0" stop-color="#07111f"/><stop offset="0.5" stop-color="#14243b"/><stop offset="1" stop-color="#081018"/></linearGradient>
    <linearGradient id="ce" x1="0" y1="0" x2="1" y2="1"><stop offset="0" stop-color="#20d4ff"/><stop offset="0.52" stop-color="#8b5cf6"/><stop offset="1" stop-color="#ff7ab6"/></linearGradient>
    <pattern id="grid" width="44" height="44" patternUnits="userSpaceOnUse"><path d="M44 0H0V44" fill="none" stroke="#77a8c8" stroke-width="0.7" opacity="0.16"/></pattern>
    <filter id="glow"><feGaussianBlur stdDeviation="8" result="b"/><feMerge><feMergeNode in="b"/><feMergeNode in="SourceGraphic"/></feMerge></filter>
  </defs>
  <rect width="1600" height="900" fill="url(#bg)"/>
  <rect width="1600" height="900" fill="url(#grid)" opacity="0.55"/>
  <path d="M0 720 C260 620 480 790 760 705 S1190 560 1600 650 L1600 900 L0 900Z" fill="#14334c" opacity="0.42"/>
  <g transform="translate(910 150)" filter="url(#glow)">
    <rect x="90" y="64" width="305" height="520" rx="42" fill="#08131c" stroke="url(#ce)" stroke-width="6"/>
    <rect x="124" y="118" width="237" height="390" rx="28" fill="#0d2635" stroke="#20d4ff" stroke-width="2"/>
    <circle cx="242" cy="552" r="20" fill="#8b5cf6"/>
    <path d="M178 280h128M242 216v128" stroke="#ff7ab6" stroke-width="10" stroke-linecap="round"/>
    <circle cx="242" cy="280" r="92" fill="none" stroke="#5cf2b6" stroke-width="7"/>
    <text x="78" y="650" fill="#e9fbff" font-family="PingFang SC, Microsoft YaHei, Arial" font-size="38" font-weight="800">AI Phone / AIPC / Wearable</text>
  </g>
  <g transform="translate(128 145)" font-family="PingFang SC, Microsoft YaHei, Arial">
    <text x="0" y="0" fill="#7be7ff" font-size="34" font-weight="700">产业链深度解析</text>
    <text x="0" y="94" fill="#f7fbff" font-size="82" font-weight="800">消费电子产业链</text>
    <text x="0" y="166" fill="#f7fbff" font-size="52" font-weight="800">AI终端与折叠屏驱动价值量重估</text>
    <rect x="0" y="218" width="780" height="4" rx="2" fill="url(#ce)"/>
    <text x="0" y="282" fill="#c7d7e8" font-size="30">AI手机 + AIPC + 折叠屏 + AI眼镜 + 以旧换新</text>
  </g>
  <g transform="translate(132 560)" font-family="PingFang SC, Microsoft YaHei, Arial">
    <g><rect width="248" height="104" rx="18" fill="#0d2637" stroke="#20d4ff"/><text x="28" y="43" fill="#fff" font-size="28" font-weight="700">上游</text><text x="28" y="78" fill="#a9c1d6" font-size="21">芯片 / 面板 / 光学</text></g>
    <g transform="translate(286 0)"><rect width="248" height="104" rx="18" fill="#18233f" stroke="#8b5cf6"/><text x="28" y="43" fill="#fff" font-size="28" font-weight="700">中游</text><text x="28" y="78" fill="#a9c1d6" font-size="21">模组 / ODM / SiP</text></g>
    <g transform="translate(572 0)"><rect width="248" height="104" rx="18" fill="#2d1c2a" stroke="#ff7ab6"/><text x="28" y="43" fill="#fff" font-size="28" font-weight="700">下游</text><text x="28" y="78" fill="#a9c1d6" font-size="21">手机 / PC / 可穿戴</text></g>
  </g>
  <text x="132" y="810" fill="#7f97ad" font-family="PingFang SC, Microsoft YaHei, Arial" font-size="24">产业链研究库 · 2026.06.04</text>
</svg>
