<svg xmlns="http://www.w3.org/2000/svg" viewBox="0 0 1840 1240">
  <defs>
    <pattern id="grid" width="40" height="40" patternUnits="userSpaceOnUse">
      <path d="M40 0H0V40" fill="none" stroke="#1e293b" stroke-width="0.7"/>
    </pattern>
    <linearGradient id="line" x1="0" y1="0" x2="1" y2="0">
      <stop offset="0" stop-color="#22d3ee"/>
      <stop offset="0.55" stop-color="#34d399"/>
      <stop offset="1" stop-color="#fbbf24"/>
    </linearGradient>
    <filter id="shadow" x="-20%" y="-20%" width="140%" height="150%">
      <feDropShadow dx="0" dy="10" stdDeviation="9" flood-color="#020617" flood-opacity="0.55"/>
    </filter>
    <marker id="arrow" markerWidth="12" markerHeight="9" refX="11" refY="4.5" orient="auto">
      <polygon points="0 0,12 4.5,0 9" fill="#22d3ee"/>
    </marker>
    <style>
      text{font-family:'Noto Sans SC','PingFang SC','Microsoft YaHei',sans-serif;letter-spacing:0}
      .title{font-size:50px;font-weight:800;fill:#f8fafc}
      .subtitle{font-size:22px;fill:#94a3b8}
      .num{font-size:16px;font-weight:800;fill:#0f172a}
      .stage{font-size:27px;font-weight:800;fill:#f8fafc}
      .role{font-size:16px;fill:#94a3b8}
      .card-title{font-size:20px;font-weight:750;fill:#f8fafc}
      .company{font-size:16px;fill:#dbeafe}
      .detail{font-size:14px;fill:#94a3b8}
      .footer-title{font-size:20px;font-weight:750;fill:#f8fafc}
      .footer{font-size:16px;fill:#cbd5e1}
      .tiny{font-size:14px;fill:#64748b}
    </style>
  </defs>
  <rect width="1840" height="1240" fill="#0f172a"/>
  <rect width="1840" height="1240" fill="url(#grid)"/>
  <rect x="54" y="46" width="124" height="6" rx="3" fill="url(#line)"/>
  <text x="54" y="108" class="title">PCB产业链全景与价值传导图</text>
  <text x="56" y="148" class="subtitle">AI服务器需求 → 高频高速材料紧缺 → 覆铜板升级与涨价 → 多路线PCB扩产</text>

  <g stroke="#22d3ee" stroke-width="4" fill="none" marker-end="url(#arrow)" opacity="0.72">
    <path d="M444 574H482"/>
    <path d="M878 574H916"/>
    <path d="M1312 574H1350"/>
  </g>

  <g transform="translate(54 190)" filter="url(#shadow)">
    <rect width="390" height="794" rx="16" fill="#0f172a"/>
    <rect width="390" height="794" rx="16" fill="rgba(8,51,68,0.38)" stroke="#22d3ee" stroke-width="2"/>
    <circle cx="42" cy="42" r="19" fill="#22d3ee"/>
    <text x="42" y="48" class="num" text-anchor="middle">01</text>
    <text x="72" y="49" class="stage">高频高速材料</text>
    <text x="28" y="82" class="role">决定信号损耗、可靠性和CCL材料等级</text>
    <g transform="translate(24 112)">
      <rect width="342" height="126" rx="8" fill="#0f172a"/>
      <rect width="342" height="126" rx="8" fill="rgba(8,51,68,0.48)" stroke="#22d3ee"/>
      <text x="18" y="32" class="card-title">电子布与石英布</text>
      <text x="18" y="62" class="company">中国巨石｜宏和｜中材｜菲利华</text>
      <text x="18" y="92" class="detail">Low-Dk / Low-CTE / 极薄布</text>
      <text x="18" y="112" class="detail">M9级石英电子布</text>
    </g>
    <g transform="translate(24 256)">
      <rect width="342" height="126" rx="8" fill="#0f172a"/>
      <rect width="342" height="126" rx="8" fill="rgba(120,53,15,0.32)" stroke="#fbbf24"/>
      <text x="18" y="32" class="card-title">高端铜箔</text>
      <text x="18" y="62" class="company">铜冠铜箔｜嘉元科技｜德福科技</text>
      <text x="18" y="92" class="detail">RTF / HVLP / 载体铜箔</text>
      <text x="18" y="112" class="detail">AI服务器高端产品满产验证</text>
    </g>
    <g transform="translate(24 400)">
      <rect width="342" height="142" rx="8" fill="#0f172a"/>
      <rect width="342" height="142" rx="8" fill="rgba(76,29,149,0.38)" stroke="#a78bfa"/>
      <text x="18" y="32" class="card-title">PPO/PPE与特种树脂</text>
      <text x="18" y="62" class="company">圣泉｜东材｜呈和｜沃特</text>
      <text x="18" y="92" class="detail">PPO / 碳氢树脂 / BMI / PTFE</text>
      <text x="18" y="114" class="detail">M6-M10低损耗材料升级</text>
    </g>
    <g transform="translate(24 560)">
      <rect width="342" height="112" rx="8" fill="#0f172a"/>
      <rect width="342" height="112" rx="8" fill="rgba(6,78,59,0.4)" stroke="#34d399"/>
      <text x="18" y="32" class="card-title">环氧树脂</text>
      <text x="18" y="62" class="company">宏昌电子</text>
      <text x="18" y="90" class="detail">传统CCL黏合体系 / 成本传导</text>
    </g>
    <g transform="translate(24 690)">
      <rect width="342" height="68" rx="8" fill="#0f172a"/>
      <rect width="342" height="68" rx="8" fill="rgba(136,19,55,0.3)" stroke="#fb7185"/>
      <text x="18" y="29" class="card-title">三大紧缺主线</text>
      <text x="18" y="52" class="detail">电子布｜HVLP铜箔｜PPO/PPE树脂</text>
    </g>
  </g>

  <g transform="translate(488 190)" filter="url(#shadow)">
    <rect width="390" height="794" rx="16" fill="#0f172a"/>
    <rect width="390" height="794" rx="16" fill="rgba(59,130,246,0.25)" stroke="#60a5fa" stroke-width="2"/>
    <circle cx="42" cy="42" r="19" fill="#60a5fa"/>
    <text x="42" y="48" class="num" text-anchor="middle">02</text>
    <text x="72" y="49" class="stage">制造支撑</text>
    <text x="28" y="82" class="role">扩产与工艺升级拉动化学品和专用设备</text>
    <g transform="translate(24 132)">
      <rect width="342" height="132" rx="8" fill="#0f172a"/>
      <rect width="342" height="132" rx="8" fill="rgba(6,78,59,0.42)" stroke="#34d399"/>
      <text x="18" y="34" class="card-title">湿制程与电子化学品</text>
      <text x="18" y="68" class="company">光华科技｜新宙邦</text>
      <text x="18" y="100" class="detail">沉铜 / 电镀 / 蚀刻液 / 高纯化学品</text>
    </g>
    <g transform="translate(24 290)">
      <rect width="342" height="132" rx="8" fill="#0f172a"/>
      <rect width="342" height="132" rx="8" fill="rgba(8,51,68,0.48)" stroke="#22d3ee"/>
      <text x="18" y="34" class="card-title">钻孔与成型设备</text>
      <text x="18" y="68" class="company">大族激光｜大族数控</text>
      <text x="18" y="100" class="detail">激光/机械钻孔、压合、成型、检测</text>
    </g>
    <g transform="translate(24 448)">
      <rect width="342" height="132" rx="8" fill="#0f172a"/>
      <rect width="342" height="132" rx="8" fill="rgba(76,29,149,0.38)" stroke="#a78bfa"/>
      <text x="18" y="34" class="card-title">直写光刻</text>
      <text x="18" y="68" class="company">芯碁微装</text>
      <text x="18" y="100" class="detail">高阶HDI / 先进封装曝光工艺</text>
    </g>
    <g transform="translate(24 606)">
      <rect width="342" height="132" rx="8" fill="#0f172a"/>
      <rect width="342" height="132" rx="8" fill="rgba(120,53,15,0.32)" stroke="#fbbf24"/>
      <text x="18" y="34" class="card-title">IC载板激光设备</text>
      <text x="18" y="68" class="company">华工科技</text>
      <text x="18" y="100" class="detail">高端激光打孔 / 载板差异化装备</text>
    </g>
  </g>

  <g transform="translate(922 190)" filter="url(#shadow)">
    <rect width="390" height="794" rx="16" fill="#0f172a"/>
    <rect width="390" height="794" rx="16" fill="rgba(120,53,15,0.25)" stroke="#fbbf24" stroke-width="2"/>
    <circle cx="42" cy="42" r="19" fill="#fbbf24"/>
    <text x="42" y="48" class="num" text-anchor="middle">03</text>
    <text x="72" y="49" class="stage">覆铜板 CCL</text>
    <text x="28" y="82" class="role">材料价值转化与产业链定价枢纽</text>
    <g transform="translate(24 132)">
      <rect width="342" height="132" rx="8" fill="#0f172a"/>
      <rect width="342" height="132" rx="8" fill="rgba(120,53,15,0.35)" stroke="#fbbf24"/>
      <text x="18" y="34" class="card-title">全球与A股龙头</text>
      <text x="18" y="68" class="company">建滔积层板｜生益科技</text>
      <text x="18" y="100" class="detail">规模 / 成本 / 客户 / 高端认证</text>
    </g>
    <g transform="translate(24 290)">
      <rect width="342" height="132" rx="8" fill="#0f172a"/>
      <rect width="342" height="132" rx="8" fill="rgba(6,78,59,0.42)" stroke="#34d399"/>
      <text x="18" y="34" class="card-title">高弹性扩产</text>
      <text x="18" y="68" class="company">金安国纪｜南亚新材｜华正新材</text>
      <text x="18" y="100" class="detail">产能爬坡 / 产品结构 / 利润弹性</text>
    </g>
    <g transform="translate(24 448)">
      <rect width="342" height="132" rx="8" fill="#0f172a"/>
      <rect width="342" height="132" rx="8" fill="rgba(76,29,149,0.38)" stroke="#a78bfa"/>
      <text x="18" y="34" class="card-title">材料代际</text>
      <text x="18" y="68" class="company">FR-4 → M7/M8/M9/M10</text>
      <text x="18" y="100" class="detail">Ultra-low loss / 认证周期2-3年</text>
    </g>
    <g transform="translate(24 606)">
      <rect width="342" height="132" rx="8" fill="#0f172a"/>
      <rect width="342" height="132" rx="8" fill="rgba(136,19,55,0.3)" stroke="#fb7185"/>
      <text x="18" y="34" class="card-title">价格传导</text>
      <text x="18" y="68" class="company">树脂 + 电子布 + 铜箔</text>
      <text x="18" y="100" class="detail">成本上涨 → CCL提价 → PCB传导</text>
    </g>
  </g>

  <g transform="translate(1356 190)" filter="url(#shadow)">
    <rect width="430" height="794" rx="16" fill="#0f172a"/>
    <rect width="430" height="794" rx="16" fill="rgba(6,78,59,0.28)" stroke="#34d399" stroke-width="2"/>
    <circle cx="42" cy="42" r="19" fill="#34d399"/>
    <text x="42" y="48" class="num" text-anchor="middle">04</text>
    <text x="72" y="49" class="stage">PCB与终端</text>
    <text x="28" y="82" class="role">多技术路线共同兑现AI算力基础设施需求</text>
    <g transform="translate(24 108)">
      <rect width="382" height="112" rx="8" fill="#0f172a"/>
      <rect width="382" height="112" rx="8" fill="rgba(8,51,68,0.48)" stroke="#22d3ee"/>
      <text x="18" y="31" class="card-title">综合PCB龙头</text>
      <text x="18" y="59" class="company">鹏鼎｜胜宏｜沪电｜深南</text>
      <text x="18" y="88" class="detail">高层数 / 高频高速 / 高阶HDI</text>
    </g>
    <g transform="translate(24 238)">
      <rect width="382" height="112" rx="8" fill="#0f172a"/>
      <rect width="382" height="112" rx="8" fill="rgba(6,78,59,0.42)" stroke="#34d399"/>
      <text x="18" y="31" class="card-title">算力服务器PCB</text>
      <text x="18" y="59" class="company">广合科技</text>
      <text x="18" y="88" class="detail">UBB / OAM / GPU主板 / 高速交换板</text>
    </g>
    <g transform="translate(24 368)">
      <rect width="382" height="112" rx="8" fill="#0f172a"/>
      <rect width="382" height="112" rx="8" fill="rgba(59,130,246,0.3)" stroke="#60a5fa"/>
      <text x="18" y="31" class="card-title">差异化PCB路线</text>
      <text x="18" y="59" class="company">中富电路｜东山精密</text>
      <text x="18" y="88" class="detail">内埋器件 / 电源管理 / FPC / 光模块</text>
    </g>
    <g transform="translate(24 498)">
      <rect width="382" height="112" rx="8" fill="#0f172a"/>
      <rect width="382" height="112" rx="8" fill="rgba(76,29,149,0.38)" stroke="#a78bfa"/>
      <text x="18" y="31" class="card-title">IC载板 / 封装基板</text>
      <text x="18" y="59" class="company">兴森科技｜深南电路</text>
      <text x="18" y="88" class="detail">CSP / FC-BGA / 端侧AI芯片封装</text>
    </g>
    <g transform="translate(24 628)">
      <rect width="382" height="112" rx="8" fill="#0f172a"/>
      <rect width="382" height="112" rx="8" fill="rgba(120,53,15,0.32)" stroke="#fbbf24"/>
      <text x="18" y="31" class="card-title">终端应用</text>
      <text x="18" y="59" class="company">AI服务器｜1.6T光模块｜交换机</text>
      <text x="18" y="88" class="detail">汽车电子 / 消费电子 / AI终端</text>
    </g>
  </g>

  <g transform="translate(54 1022)">
    <rect width="1732" height="142" rx="14" fill="#0f172a"/>
    <rect width="1732" height="142" rx="14" fill="rgba(30,41,59,0.62)" stroke="#475569"/>
    <text x="28" y="38" class="footer-title">研究主线</text>
    <text x="28" y="74" class="footer">① AI服务器推动材料等级升级　② 电子布、HVLP铜箔、PPO/PPE形成供给瓶颈　③ CCL涨价与认证体现定价权</text>
    <text x="28" y="108" class="footer">动态追踪：原料价格与产能｜M9/M10认证｜PCB厂资本开支｜服务器订单｜毛利率、现金流与存货</text>
  </g>
  <text x="56" y="1208" class="tiny">产业链研究库 · PCB · 2026.06.12</text>
</svg>
