<svg xmlns="http://www.w3.org/2000/svg" width="1600" height="900" viewBox="0 0 1600 900">
  <defs>
    <linearGradient id="bg" x1="0" y1="0" x2="1" y2="1"><stop offset="0" stop-color="#07111f"/><stop offset="0.5" stop-color="#13243b"/><stop offset="1" stop-color="#081018"/></linearGradient>
    <linearGradient id="energy" x1="0" y1="0" x2="1" y2="1"><stop offset="0" stop-color="#20d4ff"/><stop offset="0.48" stop-color="#5cf2b6"/><stop offset="1" stop-color="#ffb86b"/></linearGradient>
    <pattern id="grid" width="44" height="44" patternUnits="userSpaceOnUse"><path d="M44 0H0V44" fill="none" stroke="#77a8c8" stroke-width="0.7" opacity="0.16"/></pattern>
    <filter id="glow"><feGaussianBlur stdDeviation="8" result="b"/><feMerge><feMergeNode in="b"/><feMergeNode in="SourceGraphic"/></feMerge></filter>
  </defs>
  <rect width="1600" height="900" fill="url(#bg)"/>
  <rect width="1600" height="900" fill="url(#grid)" opacity="0.55"/>
  <path d="M0 720 C260 620 480 790 760 705 S1190 560 1600 650 L1600 900 L0 900Z" fill="#14334c" opacity="0.42"/>
  <g transform="translate(910 160)" filter="url(#glow)">
    <circle cx="260" cy="280" r="190" fill="#08131c" stroke="url(#energy)" stroke-width="6"/>
    <circle cx="260" cy="280" r="92" fill="#0d2635" stroke="#20d4ff" stroke-width="4"/>
    <path d="M260 95v370M75 280h370" stroke="#5cf2b6" stroke-width="12" stroke-linecap="round"/>
    <path d="M165 116L356 444M356 116L165 444" stroke="#ffb86b" stroke-width="8" stroke-linecap="round"/>
    <circle cx="260" cy="280" r="32" fill="#ffb86b"/>
    <text x="74" y="535" fill="#e9fbff" font-family="PingFang SC, Microsoft YaHei, Arial" font-size="38" font-weight="800">Gas Turbine / SOFC</text>
  </g>
  <g transform="translate(128 145)" font-family="PingFang SC, Microsoft YaHei, Arial">
    <text x="0" y="0" fill="#7be7ff" font-size="34" font-weight="700">产业链深度解析</text>
    <text x="0" y="94" fill="#f7fbff" font-size="76" font-weight="800">AI算力能源供给侧</text>
    <text x="0" y="166" fill="#f7fbff" font-size="52" font-weight="800">从燃气轮机到SOFC的自建发电图谱</text>
    <rect x="0" y="218" width="780" height="4" rx="2" fill="url(#energy)"/>
    <text x="0" y="282" fill="#c7d7e8" font-size="30">燃气轮机 + 柴发 + 天然气内燃机 + SOFC + HRSG</text>
  </g>
  <g transform="translate(132 560)" font-family="PingFang SC, Microsoft YaHei, Arial">
    <g><rect width="248" height="104" rx="18" fill="#0d2637" stroke="#20d4ff"/><text x="28" y="43" fill="#fff" font-size="28" font-weight="700">上游</text><text x="28" y="78" fill="#a9c1d6" font-size="21">铸件 / 高温合金 / 叶片</text></g>
    <g transform="translate(286 0)"><rect width="248" height="104" rx="18" fill="#102d31" stroke="#5cf2b6"/><text x="28" y="43" fill="#fff" font-size="28" font-weight="700">中游</text><text x="28" y="78" fill="#a9c1d6" font-size="21">燃机 / 柴发 / SOFC</text></g>
    <g transform="translate(572 0)"><rect width="248" height="104" rx="18" fill="#2a2918" stroke="#ffb86b"/><text x="28" y="43" fill="#fff" font-size="28" font-weight="700">下游</text><text x="28" y="78" fill="#a9c1d6" font-size="21">AIDC自建发电</text></g>
  </g>
  <text x="132" y="810" fill="#7f97ad" font-family="PingFang SC, Microsoft YaHei, Arial" font-size="24">产业链研究库 · 2026.06.04</text>
</svg>
