<svg xmlns="http://www.w3.org/2000/svg" width="1600" height="900" viewBox="0 0 1600 900">
  <defs>
    <linearGradient id="bg" x1="0" y1="0" x2="1" y2="1"><stop offset="0" stop-color="#07111f"/><stop offset="0.5" stop-color="#11263a"/><stop offset="1" stop-color="#081018"/></linearGradient>
    <linearGradient id="power" x1="0" y1="0" x2="1" y2="1"><stop offset="0" stop-color="#20d4ff"/><stop offset="0.5" stop-color="#5cf2b6"/><stop offset="1" stop-color="#ffd166"/></linearGradient>
    <pattern id="grid" width="44" height="44" patternUnits="userSpaceOnUse"><path d="M44 0H0V44" fill="none" stroke="#77a8c8" stroke-width="0.7" opacity="0.16"/></pattern>
    <filter id="glow"><feGaussianBlur stdDeviation="8" result="b"/><feMerge><feMergeNode in="b"/><feMergeNode in="SourceGraphic"/></feMerge></filter>
  </defs>
  <rect width="1600" height="900" fill="url(#bg)"/>
  <rect width="1600" height="900" fill="url(#grid)" opacity="0.55"/>
  <path d="M0 720 C260 620 480 790 760 705 S1190 560 1600 650 L1600 900 L0 900Z" fill="#14334c" opacity="0.42"/>
  <g transform="translate(890 150)" filter="url(#glow)">
    <path d="M250 52L64 420H220L176 560L452 205H292L360 52Z" fill="#0a1620" stroke="url(#power)" stroke-width="6" stroke-linejoin="round"/>
    <g stroke="#20d4ff" stroke-width="5" fill="none" opacity="0.85">
      <path d="M20 620C150 540 390 540 530 620"/>
      <path d="M30 30C160 105 390 105 520 30"/>
      <path d="M-10 340H90M420 340h110"/>
    </g>
    <text x="56" y="650" fill="#e9fbff" font-family="PingFang SC, Microsoft YaHei, Arial" font-size="38" font-weight="800">UHV / HVDC / AIDC</text>
  </g>
  <g transform="translate(128 145)" font-family="PingFang SC, Microsoft YaHei, Arial">
    <text x="0" y="0" fill="#7be7ff" font-size="34" font-weight="700">产业链深度解析</text>
    <text x="0" y="94" fill="#f7fbff" font-size="82" font-weight="800">电力基础设施</text>
    <text x="0" y="166" fill="#f7fbff" font-size="54" font-weight="800">能源与算力融合的战略枢纽</text>
    <rect x="0" y="218" width="780" height="4" rx="2" fill="url(#power)"/>
    <text x="0" y="282" fill="#c7d7e8" font-size="30">特高压 + 智能配网 + 算电协同 + AI数据中心供电</text>
  </g>
  <g transform="translate(132 560)" font-family="PingFang SC, Microsoft YaHei, Arial">
    <g><rect width="248" height="104" rx="18" fill="#0d2637" stroke="#20d4ff"/><text x="28" y="43" fill="#fff" font-size="28" font-weight="700">上游</text><text x="28" y="78" fill="#a9c1d6" font-size="21">变压器 / 开关 / 线缆</text></g>
    <g transform="translate(286 0)"><rect width="248" height="104" rx="18" fill="#102d31" stroke="#5cf2b6"/><text x="28" y="43" fill="#fff" font-size="28" font-weight="700">中游</text><text x="28" y="78" fill="#a9c1d6" font-size="21">特高压 / 配网 / 数字电网</text></g>
    <g transform="translate(572 0)"><rect width="248" height="104" rx="18" fill="#2a2918" stroke="#ffd166"/><text x="28" y="43" fill="#fff" font-size="28" font-weight="700">下游</text><text x="28" y="78" fill="#a9c1d6" font-size="21">AIDC / 新能源 / 充电</text></g>
  </g>
  <text x="132" y="810" fill="#7f97ad" font-family="PingFang SC, Microsoft YaHei, Arial" font-size="24">产业链研究库 · 2026.06.04</text>
</svg>
