<svg xmlns="http://www.w3.org/2000/svg" width="1840" height="1240" viewBox="0 0 1840 1240">
  <defs>
    <linearGradient id="bg" x1="0" y1="0" x2="1" y2="1"><stop offset="0" stop-color="#07111f"/><stop offset="0.55" stop-color="#10253b"/><stop offset="1" stop-color="#081018"/></linearGradient>
    <pattern id="grid" width="42" height="42" patternUnits="userSpaceOnUse"><path d="M42 0H0V42" fill="none" stroke="#74a7c8" stroke-width="0.7" opacity="0.16"/></pattern>
    <filter id="shadow"><feDropShadow dx="0" dy="12" stdDeviation="10" flood-color="#000" flood-opacity="0.32"/></filter>
    <marker id="arrow" markerWidth="14" markerHeight="14" refX="11" refY="7" orient="auto"><path d="M0,0 L14,7 L0,14 z" fill="#69e7ff"/></marker>
    <style>
      .title{font-family:PingFang SC,Microsoft YaHei,Arial,sans-serif;font-size:52px;font-weight:800;fill:#f7fbff}
      .sub{font-family:PingFang SC,Microsoft YaHei,Arial,sans-serif;font-size:24px;fill:#a9c4d9}
      .stage{font-family:PingFang SC,Microsoft YaHei,Arial,sans-serif;font-size:34px;font-weight:800;fill:#f7fbff}
      .desc{font-family:PingFang SC,Microsoft YaHei,Arial,sans-serif;font-size:20px;fill:#a9c4d9}
      .cardTitle{font-family:PingFang SC,Microsoft YaHei,Arial,sans-serif;font-size:24px;font-weight:800;fill:#f7fbff}
      .item{font-family:PingFang SC,Microsoft YaHei,Arial,sans-serif;font-size:20px;fill:#dbe8f2}
      .small{font-family:PingFang SC,Microsoft YaHei,Arial,sans-serif;font-size:18px;fill:#9cb3c7}
    </style>
  </defs>
  <rect width="1840" height="1240" fill="url(#bg)"/>
  <rect width="1840" height="1240" fill="url(#grid)"/>
  <text x="92" y="86" class="title">光模块产业链图谱</text>
  <text x="94" y="126" class="sub">光芯片与材料 -> 光器件/光模块 -> CPO交换机与智算组网</text>
  <g transform="translate(92 170)" filter="url(#shadow)">
    <rect width="500" height="780" rx="24" fill="#0d2233" stroke="#20d4ff" stroke-width="2.5"/>
    <text x="34" y="56" class="stage">上游：光芯片与材料</text>
    <text x="34" y="90" class="desc">技术壁垒最高，决定高速模块产能瓶颈</text>
    <g transform="translate(34 126)"><rect width="432" height="112" rx="16" fill="#102f45" stroke="#20d4ff"/><text x="24" y="38" class="cardTitle">光芯片</text><text x="24" y="72" class="item">源杰科技｜长光华芯｜仕佳光子</text><text x="24" y="98" class="small">EML / CW光源 / PLC-AWG / 光芯片供需</text></g>
    <g transform="translate(34 260)"><rect width="432" height="112" rx="16" fill="#18233f" stroke="#8b5cf6"/><text x="24" y="38" class="cardTitle">薄膜铌酸锂与光学晶体</text><text x="24" y="72" class="item">光库科技｜福晶科技</text><text x="24" y="98" class="small">TFLN调制器 / CPO / 高速低功耗</text></g>
    <g transform="translate(34 394)"><rect width="432" height="112" rx="16" fill="#14352f" stroke="#5cf2b6"/><text x="24" y="38" class="cardTitle">衬底与陶瓷封装</text><text x="24" y="72" class="item">云南锗业｜中瓷电子｜三环集团｜国瓷材料</text><text x="24" y="98" class="small">InP衬底 / 陶瓷外壳 / 基板 / 插芯</text></g>
    <g transform="translate(34 528)"><rect width="432" height="112" rx="16" fill="#2b2a19" stroke="#ffd166"/><text x="24" y="38" class="cardTitle">光纤预制棒与光缆</text><text x="24" y="72" class="item">长飞光纤｜亨通光电</text><text x="24" y="98" class="small">光棒-光纤-光缆 / 三波段多芯光缆</text></g>
  </g>
  <g transform="translate(670 170)" filter="url(#shadow)">
    <rect width="560" height="780" rx="24" fill="#0d2233" stroke="#8b5cf6" stroke-width="2.5"/>
    <text x="34" y="56" class="stage">中游：光器件与光模块</text>
    <text x="34" y="90" class="desc">800G/1.6T放量，光引擎与模块利润兑现</text>
    <g transform="translate(34 128)"><rect width="492" height="132" rx="16" fill="#102f45" stroke="#20d4ff"/><text x="24" y="42" class="cardTitle">光器件 / 光引擎</text><text x="24" y="80" class="item">天孚通信｜腾景科技</text><text x="24" y="110" class="small">无源光器件 / 光引擎 / OCS-CPO零部件</text></g>
    <g transform="translate(34 296)"><rect width="492" height="132" rx="16" fill="#18233f" stroke="#8b5cf6"/><text x="24" y="42" class="cardTitle">高速光模块</text><text x="24" y="80" class="item">中际旭创｜新易盛｜剑桥科技｜华工科技</text><text x="24" y="110" class="small">800G / 1.6T / LPO / 硅光方案</text></g>
    <g transform="translate(34 464)"><rect width="492" height="132" rx="16" fill="#14352f" stroke="#5cf2b6"/><text x="24" y="42" class="cardTitle">核心变量</text><text x="24" y="80" class="item">云厂CAPEX、订单排期、产能、硅光占比</text><text x="24" y="110" class="small">需求来自英伟达平台与全球AI数据中心</text></g>
  </g>
  <g transform="translate(1308 170)" filter="url(#shadow)">
    <rect width="440" height="780" rx="24" fill="#0d2233" stroke="#5cf2b6" stroke-width="2.5"/>
    <text x="34" y="56" class="stage">下游：智算组网</text>
    <text x="34" y="90" class="desc">从模块升级走向底层连接重构</text>
    <g transform="translate(34 132)"><rect width="372" height="132" rx="16" fill="#102f45" stroke="#20d4ff"/><text x="24" y="42" class="cardTitle">CPO硅光交换机</text><text x="24" y="80" class="item">Spectrum-X｜Vera Rubin</text><text x="24" y="110" class="small">光电一体封装 / 功耗下降 / 量产元年</text></g>
    <g transform="translate(34 302)"><rect width="372" height="132" rx="16" fill="#14352f" stroke="#5cf2b6"/><text x="24" y="42" class="cardTitle">光纤光缆网络</text><text x="24" y="80" class="item">长飞光纤｜亨通光电</text><text x="24" y="110" class="small">多芯光缆 / 光纤涨价 / 智算干线</text></g>
    <g transform="translate(34 472)"><rect width="372" height="132" rx="16" fill="#2b2a19" stroke="#ffd166"/><text x="24" y="42" class="cardTitle">交换机与云厂</text><text x="24" y="80" class="item">中兴通讯｜Meta｜Oracle｜微软｜谷歌</text><text x="24" y="110" class="small">AI集群互联 / CPO系统级集成</text></g>
    <g transform="translate(34 642)"><rect width="372" height="74" rx="16" fill="#162b3a" stroke="#46677e"/><text x="24" y="46" class="item">光进铜退：算力释放的连接底座</text></g>
  </g>
  <g stroke="#69e7ff" stroke-width="4" fill="none" marker-end="url(#arrow)" opacity="0.92"><path d="M592 560H650"/><path d="M1230 560H1288"/></g>
  <g transform="translate(92 1010)" filter="url(#shadow)">
    <rect width="1656" height="142" rx="24" fill="#0c1d2b" stroke="#304c64"/>
    <text x="34" y="46" class="cardTitle">动态追踪主线</text>
    <text x="34" y="88" class="item">1. 800G/1.6T订单  2. CPO硅光量产  3. InP/EML/CW光芯片供需  4. 薄膜铌酸锂与光引擎  5. 光纤光缆涨价与多芯光缆商用</text>
  </g>
  <text x="92" y="1200" class="small">产业链研究库 · 光模块 · 2026.06.04</text>
</svg>
