<svg viewBox="0 0 1600 900" xmlns="http://www.w3.org/2000/svg">
  <defs>
    <pattern id="grid" width="40" height="40" patternUnits="userSpaceOnUse">
      <path d="M40 0H0V40" fill="none" stroke="#1e293b" stroke-width="0.6"/>
    </pattern>
    <marker id="arrow" markerWidth="10" markerHeight="7" refX="9" refY="3.5" orient="auto">
      <polygon points="0 0,10 3.5,0 7" fill="#64748b"/>
    </marker>
    <marker id="arrow-cyan" markerWidth="10" markerHeight="7" refX="9" refY="3.5" orient="auto">
      <polygon points="0 0,10 3.5,0 7" fill="#22d3ee"/>
    </marker>
    <style>
      text { font-family: "Noto Sans SC","PingFang SC","Microsoft YaHei",sans-serif; }
      .title { fill:#f8fafc;font-size:34px;font-weight:700; }
      .sub { fill:#94a3b8;font-size:16px; }
      .stage { fill:#f8fafc;font-size:22px;font-weight:700; }
      .box-title { fill:#f8fafc;font-size:18px;font-weight:700; }
      .box-sub { fill:#cbd5e1;font-size:14px; }
      .company { fill:#94a3b8;font-size:13px; }
      .label { fill:#fbbf24;font-size:14px;font-weight:700; }
    </style>
  </defs>
  <rect width="1600" height="900" fill="#0f172a"/>
  <rect width="1600" height="900" fill="url(#grid)"/>

  <text x="60" y="64" class="title">玻璃基板产业链全景与价值传导</text>
  <text x="60" y="96" class="sub">AI芯片大尺寸化与先进封装升级 → TGV玻璃基板商业化验证 → 材料、设备、加工与封测协同放量</text>

  <rect x="55" y="140" width="440" height="600" rx="12" fill="none" stroke="#22d3ee" stroke-width="2"/>
  <rect x="580" y="140" width="440" height="600" rx="12" fill="none" stroke="#34d399" stroke-width="2"/>
  <rect x="1105" y="140" width="440" height="600" rx="12" fill="none" stroke="#a78bfa" stroke-width="2"/>

  <text x="275" y="184" class="stage" text-anchor="middle">上游：材料与设备</text>
  <text x="800" y="184" class="stage" text-anchor="middle">中游：TGV精密加工</text>
  <text x="1325" y="184" class="stage" text-anchor="middle">下游：先进封装与应用</text>

  <path d="M495 440H570" stroke="#22d3ee" stroke-width="3" marker-end="url(#arrow-cyan)"/>
  <path d="M1020 440H1095" stroke="#34d399" stroke-width="3" marker-end="url(#arrow)"/>

  <g>
    <rect x="90" y="230" width="370" height="125" rx="8" fill="#0f172a"/>
    <rect x="90" y="230" width="370" height="125" rx="8" fill="rgba(8,51,68,.5)" stroke="#22d3ee" stroke-width="1.5"/>
    <text x="275" y="270" class="box-title" text-anchor="middle">特种玻璃与高纯原料</text>
    <text x="275" y="300" class="box-sub" text-anchor="middle">高纯石英砂 · 高硼硅/铝硼硅 · 封装级原片</text>
    <text x="275" y="329" class="company" text-anchor="middle">彩虹股份 · 凯盛科技 · 安彩高科 · 南玻A</text>
  </g>
  <g>
    <rect x="90" y="390" width="370" height="125" rx="8" fill="#0f172a"/>
    <rect x="90" y="390" width="370" height="125" rx="8" fill="rgba(120,53,15,.35)" stroke="#fbbf24" stroke-width="1.5"/>
    <text x="275" y="430" class="box-title" text-anchor="middle">TGV激光钻孔设备</text>
    <text x="275" y="460" class="box-sub" text-anchor="middle">高深宽比微孔 · 孔径一致性 · 加工效率</text>
    <text x="275" y="489" class="company" text-anchor="middle">帝尔激光 · 迈为股份</text>
  </g>
  <g>
    <rect x="90" y="550" width="370" height="125" rx="8" fill="#0f172a"/>
    <rect x="90" y="550" width="370" height="125" rx="8" fill="rgba(120,53,15,.35)" stroke="#fbbf24" stroke-width="1.5"/>
    <text x="275" y="590" class="box-title" text-anchor="middle">金属化、RDL与检测</text>
    <text x="275" y="620" class="box-sub" text-anchor="middle">孔内铜填充 · 电镀 · 布线 · 缺陷检测</text>
    <text x="275" y="649" class="company" text-anchor="middle">三超新材等</text>
  </g>

  <g>
    <rect x="615" y="230" width="370" height="125" rx="8" fill="#0f172a"/>
    <rect x="615" y="230" width="370" height="125" rx="8" fill="rgba(6,78,59,.48)" stroke="#34d399" stroke-width="1.5"/>
    <text x="800" y="270" class="box-title" text-anchor="middle">玻璃基封装载板平台</text>
    <text x="800" y="300" class="box-sub" text-anchor="middle">显示玻璃能力向面板级封装载板延伸</text>
    <text x="800" y="329" class="company" text-anchor="middle">京东方A · 彩虹股份</text>
  </g>
  <g>
    <rect x="615" y="390" width="370" height="125" rx="8" fill="#0f172a"/>
    <rect x="615" y="390" width="370" height="125" rx="8" fill="rgba(6,78,59,.48)" stroke="#34d399" stroke-width="1.5"/>
    <text x="800" y="430" class="box-title" text-anchor="middle">TGV全流程加工</text>
    <text x="800" y="460" class="box-sub" text-anchor="middle">成孔 → 金属化填充 → RDL布线 → 小批量供货</text>
    <text x="800" y="489" class="company" text-anchor="middle">沃格光电</text>
  </g>
  <g>
    <rect x="615" y="550" width="370" height="125" rx="8" fill="#0f172a"/>
    <rect x="615" y="550" width="370" height="125" rx="8" fill="rgba(6,78,59,.48)" stroke="#34d399" stroke-width="1.5"/>
    <text x="800" y="590" class="box-title" text-anchor="middle">玻璃晶圆与精密加工</text>
    <text x="800" y="620" class="box-sub" text-anchor="middle">玻璃晶圆 · 精密光学加工 · TGV配套</text>
    <text x="800" y="649" class="company" text-anchor="middle">蓝特光学 · 五方光电 · 美迪凯</text>
  </g>

  <g>
    <rect x="1140" y="230" width="370" height="125" rx="8" fill="#0f172a"/>
    <rect x="1140" y="230" width="370" height="125" rx="8" fill="rgba(76,29,149,.45)" stroke="#a78bfa" stroke-width="1.5"/>
    <text x="1325" y="270" class="box-title" text-anchor="middle">先进封装与封测</text>
    <text x="1325" y="300" class="box-sub" text-anchor="middle">芯片集成 · 晶圆级封装 · 大客户量产验证</text>
    <text x="1325" y="329" class="company" text-anchor="middle">长电科技 · 晶方科技</text>
  </g>
  <g>
    <rect x="1140" y="390" width="370" height="125" rx="8" fill="#0f172a"/>
    <rect x="1140" y="390" width="370" height="125" rx="8" fill="rgba(59,130,246,.35)" stroke="#60a5fa" stroke-width="1.5"/>
    <text x="1325" y="430" class="box-title" text-anchor="middle">AI芯片与高性能计算</text>
    <text x="1325" y="460" class="box-sub" text-anchor="middle">大尺寸芯片 · 高密度互连 · 低翘曲</text>
    <text x="1325" y="489" class="company" text-anchor="middle">英特尔 · 台积电 · AMD · 英伟达</text>
  </g>
  <g>
    <rect x="1140" y="550" width="370" height="125" rx="8" fill="#0f172a"/>
    <rect x="1140" y="550" width="370" height="125" rx="8" fill="rgba(59,130,246,.35)" stroke="#60a5fa" stroke-width="1.5"/>
    <text x="1325" y="590" class="box-title" text-anchor="middle">CPO与高频应用</text>
    <text x="1325" y="620" class="box-sub" text-anchor="middle">1.6T光模块 · 光电共封装 · 6G射频</text>
    <text x="1325" y="649" class="company" text-anchor="middle">沃格光电 · 京东方A · 蓝特光学</text>
  </g>

  <rect x="55" y="775" width="1490" height="82" rx="10" fill="rgba(136,19,55,.35)" stroke="#fb7185" stroke-width="1.5"/>
  <text x="78" y="807" class="label">关键验证</text>
  <text x="78" y="836" class="box-sub">海外量产时点 · 封装级材料认证 · TGV良率与成本 · 送样转正式订单 · AI/CPO客户规模采用</text>
</svg>
