<svg xmlns="http://www.w3.org/2000/svg" width="1200" height="675" viewBox="0 0 1200 675">
  <defs>
    <linearGradient id="bg" x1="0" y1="0" x2="1" y2="1">
      <stop offset="0%" stop-color="#07111f"/>
      <stop offset="52%" stop-color="#102338"/>
      <stop offset="100%" stop-color="#1b2012"/>
    </linearGradient>
    <linearGradient id="accent" x1="0" y1="0" x2="1" y2="0">
      <stop offset="0%" stop-color="#42d6ff"/>
      <stop offset="55%" stop-color="#80f2b8"/>
      <stop offset="100%" stop-color="#ffd166"/>
    </linearGradient>
    <filter id="glow" x="-40%" y="-40%" width="180%" height="180%">
      <feGaussianBlur stdDeviation="6" result="blur"/>
      <feMerge><feMergeNode in="blur"/><feMergeNode in="SourceGraphic"/></feMerge>
    </filter>
  </defs>
  <rect width="1200" height="675" fill="url(#bg)"/>
  <g opacity="0.17" stroke="#e7fbff" stroke-width="1">
    <path d="M64 118h260M54 206h220M84 510h280M888 116h230M890 530h230"/>
    <path d="M142 72v485M258 96v390M948 68v510M1082 144v390"/>
  </g>
  <g transform="translate(690 92)" filter="url(#glow)">
    <ellipse cx="206" cy="258" rx="245" ry="118" fill="none" stroke="#42d6ff" stroke-width="4" opacity="0.55" transform="rotate(-18 206 258)"/>
    <ellipse cx="206" cy="258" rx="178" ry="78" fill="none" stroke="#80f2b8" stroke-width="4" opacity="0.48" transform="rotate(22 206 258)"/>
    <g transform="translate(172 88)">
      <path d="M78 0c44 42 56 98 42 164l-28 132H46L18 164C4 98 16 42 60 0z" fill="#0d2030" stroke="url(#accent)" stroke-width="5"/>
      <circle cx="78" cy="96" r="30" fill="#102c3e" stroke="#42d6ff" stroke-width="5"/>
      <path d="M36 210l-58 38v-72l44-24M114 210l58 38v-72l-44-24" fill="#102c3e" stroke="#80f2b8" stroke-width="4"/>
      <path d="M54 300l-18 52h42l-2-52M100 300l18 52H76l2-52" fill="#ffd166"/>
    </g>
    <g transform="translate(72 356)">
      <rect x="0" y="0" width="122" height="70" rx="12" fill="#102c3e" stroke="#42d6ff" stroke-width="4"/>
      <rect x="-36" y="20" width="34" height="30" rx="4" fill="#173d33" stroke="#80f2b8" stroke-width="3"/>
      <rect x="124" y="20" width="34" height="30" rx="4" fill="#173d33" stroke="#80f2b8" stroke-width="3"/>
      <circle cx="61" cy="35" r="12" fill="#ffd166"/>
    </g>
  </g>
  <g transform="translate(78 92)">
    <text x="0" y="0" fill="#9ee7ff" font-family="PingFang SC, Microsoft YaHei, Arial, sans-serif" font-size="30" font-weight="700">产业链深度解析</text>
    <text x="0" y="88" fill="#ffffff" font-family="PingFang SC, Microsoft YaHei, Arial, sans-serif" font-size="72" font-weight="800">商业航天</text>
    <text x="0" y="150" fill="#d8f7ff" font-family="PingFang SC, Microsoft YaHei, Arial, sans-serif" font-size="33" font-weight="650">从火箭卫星制造到太空应用全梳理</text>
    <rect x="0" y="204" width="636" height="2" fill="#80f2b8"/>
    <text x="0" y="263" fill="#f2fbff" font-family="PingFang SC, Microsoft YaHei, Arial, sans-serif" font-size="29" font-weight="650">卫星/火箭制造 → 发射运营 → 应用服务</text>
    <text x="0" y="319" fill="#ffd166" font-family="PingFang SC, Microsoft YaHei, Arial, sans-serif" font-size="27" font-weight="750">千帆组网 · 可复用火箭 · SpaceX IPO · 卫星互联网</text>
  </g>
  <g transform="translate(78 556)" font-family="PingFang SC, Microsoft YaHei, Arial, sans-serif" font-size="23" fill="#d9faff">
    <rect x="0" y="-34" width="160" height="48" rx="10" fill="#14344a" stroke="#42d6ff"/>
    <text x="24" y="-2">千帆组网</text>
    <rect x="184" y="-34" width="178" height="48" rx="10" fill="#173d33" stroke="#80f2b8"/>
    <text x="220" y="-2">火箭复用</text>
    <rect x="386" y="-34" width="174" height="48" rx="10" fill="#3d3218" stroke="#ffd166"/>
    <text x="419" y="-2">资本催化</text>
  </g>
</svg>
