<svg xmlns="http://www.w3.org/2000/svg" viewBox="0 0 1760 1180">
  <defs>
    <pattern id="grid" width="40" height="40" patternUnits="userSpaceOnUse">
      <path d="M40 0 L0 0 0 40" fill="none" stroke="#1e293b" stroke-width="0.6"/>
    </pattern>
    <marker id="arrow-cyan" markerWidth="10" markerHeight="8" refX="9" refY="4" orient="auto">
      <polygon points="0 0, 10 4, 0 8" fill="#22d3ee"/>
    </marker>
    <marker id="arrow-amber" markerWidth="10" markerHeight="8" refX="9" refY="4" orient="auto">
      <polygon points="0 0, 10 4, 0 8" fill="#fbbf24"/>
    </marker>
    <marker id="arrow-green" markerWidth="10" markerHeight="8" refX="9" refY="4" orient="auto">
      <polygon points="0 0, 10 4, 0 8" fill="#34d399"/>
    </marker>
    <style>
      text { font-family: 'Noto Sans SC', 'PingFang SC', 'Microsoft YaHei', Arial, sans-serif; letter-spacing: 0; }
      .title { fill: #f8fafc; font-size: 32px; font-weight: 850; }
      .subtitle { fill: #94a3b8; font-size: 15px; font-weight: 500; }
      .region-title { font-size: 18px; font-weight: 850; }
      .region-sub { fill: #94a3b8; font-size: 12px; font-weight: 500; }
      .node-title { fill: #f8fafc; font-size: 15px; font-weight: 850; }
      .node-sub { fill: #cbd5e1; font-size: 11px; font-weight: 520; }
      .company { fill: #e2e8f0; font-size: 11px; font-weight: 650; }
      .tiny { fill: #94a3b8; font-size: 10px; font-weight: 520; }
      .arrow-label { fill: #bae6fd; font-size: 11px; font-weight: 800; }
      .note-title { fill: #f8fafc; font-size: 14px; font-weight: 850; }
      .note { fill: #cbd5e1; font-size: 11px; font-weight: 520; }
    </style>
  </defs>

  <rect width="1760" height="1180" fill="#0f172a"/>
  <rect width="1760" height="1180" fill="url(#grid)"/>
  <circle cx="870" cy="470" r="360" fill="#0e7490" opacity="0.09"/>
  <circle cx="1460" cy="360" r="300" fill="#f59e0b" opacity="0.07"/>

  <text x="60" y="62" class="title">光刻机产业链全景与价值传导图</text>
  <text x="60" y="92" class="subtitle">AI芯片扩产与自主可控驱动，沿“核心零部件 → 整机制造 → 晶圆制造/先进封装”推动国产替代</text>

  <rect x="50" y="135" width="540" height="650" rx="18" fill="rgba(8,51,68,0.18)" stroke="#22d3ee" stroke-width="1.5" stroke-dasharray="9 6"/>
  <text x="82" y="172" class="region-title" fill="#67e8f9">上游：核心零部件及材料</text>
  <text x="82" y="197" class="region-sub">技术壁垒最高，国产替代的深水区</text>

  <rect x="690" y="135" width="390" height="650" rx="18" fill="rgba(120,53,15,0.18)" stroke="#fbbf24" stroke-width="1.5" stroke-dasharray="9 6"/>
  <text x="722" y="172" class="region-title" fill="#fcd34d">中游：整机制造</text>
  <text x="722" y="197" class="region-sub">传统掩膜版投影式光刻机主线</text>

  <rect x="1180" y="135" width="530" height="650" rx="18" fill="rgba(6,78,59,0.18)" stroke="#34d399" stroke-width="1.5" stroke-dasharray="9 6"/>
  <text x="1212" y="172" class="region-title" fill="#86efac">下游：晶圆制造与先进封装</text>
  <text x="1212" y="197" class="region-sub">晶圆厂资本开支与封装设备需求</text>

  <!-- Upstream nodes -->
  <g>
    <rect x="82" y="230" width="230" height="106" rx="10" fill="#0f172a"/>
    <rect x="82" y="230" width="230" height="106" rx="10" fill="rgba(8,51,68,0.42)" stroke="#22d3ee" stroke-width="1.7"/>
    <text x="197" y="262" class="node-title" text-anchor="middle">光学系统</text>
    <text x="197" y="287" class="node-sub" text-anchor="middle">物镜 / 棱镜 / 光学晶体</text>
    <text x="197" y="315" class="company" text-anchor="middle">茂莱 · 福晶 · 波长</text>
  </g>
  <g>
    <rect x="342" y="230" width="215" height="106" rx="10" fill="#0f172a"/>
    <rect x="342" y="230" width="215" height="106" rx="10" fill="rgba(120,53,15,0.35)" stroke="#f59e0b" stroke-width="1.7"/>
    <text x="449" y="262" class="node-title" text-anchor="middle">光源系统</text>
    <text x="449" y="287" class="node-sub" text-anchor="middle">ArF准分子 / 匀化器</text>
    <text x="449" y="315" class="company" text-anchor="middle">炬光 · 科益虹源</text>
  </g>
  <g>
    <rect x="82" y="372" width="230" height="106" rx="10" fill="#0f172a"/>
    <rect x="82" y="372" width="230" height="106" rx="10" fill="rgba(59,130,246,0.32)" stroke="#60a5fa" stroke-width="1.7"/>
    <text x="197" y="404" class="node-title" text-anchor="middle">真空结构件</text>
    <text x="197" y="429" class="node-sub" text-anchor="middle">腔体 / 高纯管路 / 运动件</text>
    <text x="197" y="457" class="company" text-anchor="middle">新莱 · 富创</text>
  </g>
  <g>
    <rect x="342" y="372" width="215" height="106" rx="10" fill="#0f172a"/>
    <rect x="342" y="372" width="215" height="106" rx="10" fill="rgba(6,78,59,0.38)" stroke="#34d399" stroke-width="1.7"/>
    <text x="449" y="404" class="node-title" text-anchor="middle">温控与液冷</text>
    <text x="449" y="429" class="node-sub" text-anchor="middle">毫开尔文级热稳定</text>
    <text x="449" y="457" class="company" text-anchor="middle">同飞股份</text>
  </g>
  <g>
    <rect x="82" y="514" width="230" height="106" rx="10" fill="#0f172a"/>
    <rect x="82" y="514" width="230" height="106" rx="10" fill="rgba(136,19,55,0.34)" stroke="#fb7185" stroke-width="1.7"/>
    <text x="197" y="546" class="node-title" text-anchor="middle">电子特气</text>
    <text x="197" y="571" class="node-sub" text-anchor="middle">光刻气 / ASML认证</text>
    <text x="197" y="599" class="company" text-anchor="middle">中船特气 · 华特气体</text>
  </g>
  <g>
    <rect x="342" y="514" width="215" height="106" rx="10" fill="#0f172a"/>
    <rect x="342" y="514" width="215" height="106" rx="10" fill="rgba(76,29,149,0.32)" stroke="#a78bfa" stroke-width="1.7"/>
    <text x="449" y="546" class="node-title" text-anchor="middle">工件台/掩膜台</text>
    <text x="449" y="571" class="node-sub" text-anchor="middle">纳米级定位与运动控制</text>
    <text x="449" y="599" class="company" text-anchor="middle">国产化关键瓶颈</text>
  </g>
  <g>
    <rect x="82" y="660" width="475" height="92" rx="12" fill="#0f172a"/>
    <rect x="82" y="660" width="475" height="92" rx="12" fill="rgba(30,41,59,0.55)" stroke="#64748b" stroke-width="1.5"/>
    <text x="112" y="696" class="note-title">上游核心变量</text>
    <text x="112" y="725" class="note">认证周期、交付节奏、国产替代份额、毛利率与扩产折旧</text>
  </g>

  <!-- Midstream -->
  <g>
    <rect x="742" y="250" width="286" height="170" rx="16" fill="#0f172a"/>
    <rect x="742" y="250" width="286" height="170" rx="16" fill="rgba(120,53,15,0.38)" stroke="#fbbf24" stroke-width="2.2"/>
    <text x="885" y="292" class="node-title" font-size="18" text-anchor="middle">上海微电子 SMEE</text>
    <text x="885" y="322" class="node-sub" text-anchor="middle">国产前道光刻机核心整机厂</text>
    <text x="885" y="350" class="node-sub" text-anchor="middle">28nm浸没式DUV批量交付</text>
    <text x="885" y="384" class="company" text-anchor="middle">SSA800系列</text>
  </g>
  <g>
    <rect x="742" y="462" width="286" height="96" rx="10" fill="#0f172a"/>
    <rect x="742" y="462" width="286" height="96" rx="10" fill="rgba(59,130,246,0.32)" stroke="#60a5fa" stroke-width="1.7"/>
    <text x="885" y="497" class="node-title" text-anchor="middle">间接整机卡位</text>
    <text x="885" y="526" class="node-sub" text-anchor="middle">张江高科 · 上海电气</text>
  </g>
  <g>
    <rect x="742" y="602" width="286" height="96" rx="10" fill="#0f172a"/>
    <rect x="742" y="602" width="286" height="96" rx="10" fill="rgba(76,29,149,0.32)" stroke="#a78bfa" stroke-width="1.7"/>
    <text x="885" y="637" class="node-title" text-anchor="middle">差异化路线：直写光刻</text>
    <text x="885" y="666" class="node-sub" text-anchor="middle">芯碁微装：PCB/先进封装/载板</text>
  </g>

  <!-- Downstream -->
  <g>
    <rect x="1215" y="230" width="220" height="112" rx="10" fill="#0f172a"/>
    <rect x="1215" y="230" width="220" height="112" rx="10" fill="rgba(8,51,68,0.42)" stroke="#22d3ee" stroke-width="1.7"/>
    <text x="1325" y="264" class="node-title" text-anchor="middle">晶圆代工</text>
    <text x="1325" y="289" class="node-sub" text-anchor="middle">逻辑制程扩产</text>
    <text x="1325" y="317" class="company" text-anchor="middle">中芯国际 · 华虹</text>
  </g>
  <g>
    <rect x="1470" y="230" width="220" height="112" rx="10" fill="#0f172a"/>
    <rect x="1470" y="230" width="220" height="112" rx="10" fill="rgba(6,78,59,0.42)" stroke="#34d399" stroke-width="1.7"/>
    <text x="1580" y="264" class="node-title" text-anchor="middle">存储IDM</text>
    <text x="1580" y="289" class="node-sub" text-anchor="middle">DRAM / NAND扩产</text>
    <text x="1580" y="317" class="company" text-anchor="middle">长鑫 · 长江存储</text>
  </g>
  <g>
    <rect x="1215" y="392" width="475" height="140" rx="12" fill="#0f172a"/>
    <rect x="1215" y="392" width="475" height="140" rx="12" fill="rgba(59,130,246,0.32)" stroke="#60a5fa" stroke-width="1.7"/>
    <text x="1452" y="428" class="node-title" text-anchor="middle">先进封装与量检测</text>
    <text x="1452" y="462" class="node-sub" text-anchor="middle">2.5D/3D封装、载板、掩模版制板、封装测试</text>
    <text x="1452" y="502" class="company" text-anchor="middle">直写光刻与传统光刻形成互补</text>
  </g>
  <g>
    <rect x="1215" y="590" width="475" height="92" rx="12" fill="#0f172a"/>
    <rect x="1215" y="590" width="475" height="92" rx="12" fill="rgba(120,53,15,0.26)" stroke="#fbbf24" stroke-width="1.5"/>
    <text x="1245" y="626" class="note-title">下游核心变量</text>
    <text x="1245" y="655" class="note">AI芯片、HBM、ASIC需求拉动晶圆厂设备资本开支</text>
  </g>

  <!-- Arrows -->
  <path d="M557 284 C625 292 680 306 734 325" fill="none" stroke="#22d3ee" stroke-width="3.2" marker-end="url(#arrow-cyan)"/>
  <path d="M557 426 C640 414 690 382 734 352" fill="none" stroke="#60a5fa" stroke-width="3.2" marker-end="url(#arrow-cyan)"/>
  <path d="M312 568 C498 580 620 480 734 384" fill="none" stroke="#fb7185" stroke-width="3.2" marker-end="url(#arrow-amber)"/>
  <text x="642" y="274" class="arrow-label" text-anchor="middle">零部件配套</text>
  <path d="M1028 335 C1090 324 1145 304 1206 292" fill="none" stroke="#fbbf24" stroke-width="4" marker-end="url(#arrow-amber)"/>
  <text x="1110" y="306" class="arrow-label" text-anchor="middle">整机交付</text>
  <path d="M1435 286 L1460 286" fill="none" stroke="#34d399" stroke-width="4" marker-end="url(#arrow-green)"/>
  <path d="M1028 652 C1115 646 1160 574 1206 505" fill="none" stroke="#a78bfa" stroke-width="3" marker-end="url(#arrow-cyan)"/>

  <path d="M1545 560 C1425 838 1120 862 885 742 C638 616 430 725 280 760" fill="none" stroke="#fbbf24" stroke-width="3.5" stroke-dasharray="10 8" marker-end="url(#arrow-amber)"/>
  <text x="1095" y="834" fill="#fcd34d" font-size="13" font-weight="850" text-anchor="middle">需求反向拉动：AI扩产 → 设备CAPEX → 整机验证 → 零部件国产替代</text>

  <!-- Bottom logic -->
  <rect x="50" y="845" width="1660" height="272" rx="18" fill="rgba(15,23,42,0.84)" stroke="#334155" stroke-width="1.5"/>
  <text x="82" y="888" class="region-title" fill="#e2e8f0">行业核心逻辑</text>
  <g>
    <rect x="90" y="928" width="370" height="118" rx="12" fill="#0f172a"/>
    <rect x="90" y="928" width="370" height="118" rx="12" fill="rgba(8,51,68,0.42)" stroke="#22d3ee" stroke-width="1.6"/>
    <text x="118" y="964" class="note-title">1. AI算力拉动CAPEX</text>
    <text x="118" y="994" class="note">GPU、HBM、ASIC扩产推动晶圆厂设备支出</text>
    <text x="118" y="1018" class="note">光刻设备是先进制程与存储扩产核心环节</text>
  </g>
  <g>
    <rect x="500" y="928" width="370" height="118" rx="12" fill="#0f172a"/>
    <rect x="500" y="928" width="370" height="118" rx="12" fill="rgba(120,53,15,0.34)" stroke="#fbbf24" stroke-width="1.6"/>
    <text x="528" y="964" class="note-title">2. 国产替代深水区</text>
    <text x="528" y="994" class="note">光刻机国产化率低，核心子系统替代空间大</text>
    <text x="528" y="1018" class="note">整机突破带动光学、光源、真空等价值重估</text>
  </g>
  <g>
    <rect x="910" y="928" width="370" height="118" rx="12" fill="#0f172a"/>
    <rect x="910" y="928" width="370" height="118" rx="12" fill="rgba(6,78,59,0.38)" stroke="#34d399" stroke-width="1.6"/>
    <text x="938" y="964" class="note-title">3. 政策与认证催化</text>
    <text x="938" y="994" class="note">自主可控资源倾斜，验证周期成为关键变量</text>
    <text x="938" y="1018" class="note">ASML/GIGAPHOTON认证提升特气与光学稀缺性</text>
  </g>
  <g>
    <rect x="1320" y="928" width="360" height="118" rx="12" fill="#0f172a"/>
    <rect x="1320" y="928" width="360" height="118" rx="12" fill="rgba(76,29,149,0.34)" stroke="#a78bfa" stroke-width="1.6"/>
    <text x="1348" y="964" class="note-title">4. 差异化路线放量</text>
    <text x="1348" y="994" class="note">直写光刻受益先进封装、载板、PCB直接成像</text>
    <text x="1348" y="1018" class="note">与传统整机路线互补，不宜混同替代</text>
  </g>
</svg>
