<svg xmlns="http://www.w3.org/2000/svg" width="1600" height="900" viewBox="0 0 1600 900">
  <defs>
    <linearGradient id="bg" x1="0" y1="0" x2="1" y2="1"><stop offset="0" stop-color="#06111f"/><stop offset="0.52" stop-color="#13243b"/><stop offset="1" stop-color="#071019"/></linearGradient>
    <linearGradient id="ai" x1="0" y1="0" x2="1" y2="1"><stop offset="0" stop-color="#20d4ff"/><stop offset="0.5" stop-color="#8b5cf6"/><stop offset="1" stop-color="#ffd166"/></linearGradient>
    <pattern id="grid" width="44" height="44" patternUnits="userSpaceOnUse"><path d="M44 0H0V44" fill="none" stroke="#77a8c8" stroke-width="0.7" opacity="0.16"/></pattern>
    <filter id="glow"><feGaussianBlur stdDeviation="8" result="b"/><feMerge><feMergeNode in="b"/><feMergeNode in="SourceGraphic"/></feMerge></filter>
  </defs>
  <rect width="1600" height="900" fill="url(#bg)"/>
  <rect width="1600" height="900" fill="url(#grid)" opacity="0.55"/>
  <path d="M0 714 C270 620 480 790 760 700 S1190 560 1600 650 L1600 900 L0 900Z" fill="#14334c" opacity="0.42"/>
  <g transform="translate(890 160)" filter="url(#glow)">
    <rect x="72" y="120" width="365" height="365" rx="42" fill="#08131c" stroke="url(#ai)" stroke-width="5"/>
    <rect x="142" y="190" width="225" height="225" rx="26" fill="#0d2635" stroke="#20d4ff" stroke-width="2"/>
    <circle cx="254" cy="302" r="70" fill="none" stroke="#8b5cf6" stroke-width="8"/>
    <path d="M206 302h96M254 254v96" stroke="#ffd166" stroke-width="8" stroke-linecap="round"/>
    <g stroke="#5cf2b6" stroke-width="10" stroke-linecap="round">
      <path d="M72 180H20M72 245H20M72 310H20M72 375H20"/>
      <path d="M437 180h52M437 245h52M437 310h52M437 375h52"/>
      <path d="M150 120V68M215 120V68M280 120V68M345 120V68"/>
      <path d="M150 485v52M215 485v52M280 485v52M345 485v52"/>
    </g>
    <g stroke="#20d4ff" stroke-width="4" fill="none" opacity="0.85">
      <path d="M-10 610C130 540 380 540 530 610"/>
      <path d="M-10 8C130 82 380 82 530 8"/>
    </g>
  </g>
  <g transform="translate(128 145)" font-family="PingFang SC, Microsoft YaHei, Arial">
    <text x="0" y="0" fill="#7be7ff" font-size="34" font-weight="700">产业链深度解析</text>
    <text x="0" y="94" fill="#f7fbff" font-size="82" font-weight="800">AI算力基础设施</text>
    <text x="0" y="166" fill="#f7fbff" font-size="54" font-weight="800">从芯片到数据中心的总图谱</text>
    <rect x="0" y="218" width="790" height="4" rx="2" fill="url(#ai)"/>
    <text x="0" y="282" fill="#c7d7e8" font-size="30">AI芯片 + HBM + 服务器 + 光互联 + 液冷/HVDC + AIDC</text>
  </g>
  <g transform="translate(132 560)" font-family="PingFang SC, Microsoft YaHei, Arial">
    <g><rect width="248" height="104" rx="18" fill="#0d2637" stroke="#20d4ff"/><text x="28" y="43" fill="#fff" font-size="28" font-weight="700">上游</text><text x="28" y="78" fill="#a9c1d6" font-size="21">芯片 / 存储 / PCB</text></g>
    <g transform="translate(286 0)"><rect width="248" height="104" rx="18" fill="#18233f" stroke="#8b5cf6"/><text x="28" y="43" fill="#fff" font-size="28" font-weight="700">中游</text><text x="28" y="78" fill="#a9c1d6" font-size="21">服务器 / 网络 / 电力</text></g>
    <g transform="translate(572 0)"><rect width="248" height="104" rx="18" fill="#2a2918" stroke="#ffd166"/><text x="28" y="43" fill="#fff" font-size="28" font-weight="700">下游</text><text x="28" y="78" fill="#a9c1d6" font-size="21">智算中心 / 云服务</text></g>
  </g>
  <text x="132" y="810" fill="#7f97ad" font-family="PingFang SC, Microsoft YaHei, Arial" font-size="24">产业链研究库 · 2026.06.04</text>
</svg>
