<svg xmlns="http://www.w3.org/2000/svg" width="1600" height="900" viewBox="0 0 1600 900">
  <defs>
    <linearGradient id="bg" x1="0" y1="0" x2="1" y2="1">
      <stop offset="0" stop-color="#07111f"/>
      <stop offset="0.52" stop-color="#14243b"/>
      <stop offset="1" stop-color="#080f19"/>
    </linearGradient>
    <linearGradient id="mem" x1="0" y1="0" x2="1" y2="1">
      <stop offset="0" stop-color="#2dd4ff"/>
      <stop offset="0.5" stop-color="#70f5b4"/>
      <stop offset="1" stop-color="#ffd166"/>
    </linearGradient>
    <pattern id="grid" width="44" height="44" patternUnits="userSpaceOnUse">
      <path d="M44 0H0V44" fill="none" stroke="#77a8c8" stroke-width="0.7" opacity="0.17"/>
    </pattern>
    <filter id="glow"><feGaussianBlur stdDeviation="7" result="b"/><feMerge><feMergeNode in="b"/><feMergeNode in="SourceGraphic"/></feMerge></filter>
  </defs>
  <rect width="1600" height="900" fill="url(#bg)"/>
  <rect width="1600" height="900" fill="url(#grid)" opacity="0.58"/>
  <path d="M0 715 C280 640 470 790 760 705 S1180 565 1600 648 L1600 900 L0 900Z" fill="#13324a" opacity="0.42"/>
  <g transform="translate(905 165)" filter="url(#glow)">
    <rect x="0" y="115" width="468" height="300" rx="28" fill="#08131c" stroke="url(#mem)" stroke-width="5"/>
    <rect x="58" y="165" width="352" height="200" rx="20" fill="#0d2635" stroke="#2dd4ff" stroke-width="2"/>
    <g fill="#70f5b4">
      <rect x="34" y="82" width="34" height="70" rx="10"/>
      <rect x="102" y="82" width="34" height="70" rx="10"/>
      <rect x="170" y="82" width="34" height="70" rx="10"/>
      <rect x="238" y="82" width="34" height="70" rx="10"/>
      <rect x="306" y="82" width="34" height="70" rx="10"/>
      <rect x="374" y="82" width="34" height="70" rx="10"/>
      <rect x="34" y="378" width="34" height="70" rx="10"/>
      <rect x="102" y="378" width="34" height="70" rx="10"/>
      <rect x="170" y="378" width="34" height="70" rx="10"/>
      <rect x="238" y="378" width="34" height="70" rx="10"/>
      <rect x="306" y="378" width="34" height="70" rx="10"/>
      <rect x="374" y="378" width="34" height="70" rx="10"/>
    </g>
    <g stroke="#ffd166" stroke-width="6" fill="none" stroke-linecap="round">
      <path d="M112 226h244M112 266h244M112 306h244"/>
    </g>
    <text x="118" y="82" fill="#e9fbff" font-family="PingFang SC, Microsoft YaHei, Arial" font-size="40" font-weight="800">HBM / DRAM / NAND</text>
  </g>
  <g transform="translate(128 150)" font-family="PingFang SC, Microsoft YaHei, Arial">
    <text x="0" y="0" fill="#7be7ff" font-size="34" font-weight="700">产业链深度解析</text>
    <text x="0" y="94" fill="#f7fbff" font-size="86" font-weight="800">存储产业链</text>
    <text x="0" y="166" fill="#f7fbff" font-size="54" font-weight="800">AI基础设施核心资产重估</text>
    <rect x="0" y="218" width="740" height="4" rx="2" fill="url(#mem)"/>
    <text x="0" y="282" fill="#c7d7e8" font-size="31">HBM稀缺 + DRAM/NAND涨价 + 国产双巨头IPO</text>
  </g>
  <g transform="translate(132 560)" font-family="PingFang SC, Microsoft YaHei, Arial">
    <g><rect width="248" height="104" rx="18" fill="#0d2637" stroke="#2dd4ff"/><text x="28" y="43" fill="#fff" font-size="28" font-weight="700">上游</text><text x="28" y="78" fill="#a9c1d6" font-size="21">设备 / 材料 / 洁净室</text></g>
    <g transform="translate(286 0)"><rect width="248" height="104" rx="18" fill="#102d31" stroke="#70f5b4"/><text x="28" y="43" fill="#fff" font-size="28" font-weight="700">中游</text><text x="28" y="78" fill="#a9c1d6" font-size="21">设计 / 制造 / 封测</text></g>
    <g transform="translate(572 0)"><rect width="248" height="104" rx="18" fill="#2a2918" stroke="#ffd166"/><text x="28" y="43" fill="#fff" font-size="28" font-weight="700">下游</text><text x="28" y="78" fill="#a9c1d6" font-size="21">SSD / 内存 / AI服务器</text></g>
  </g>
  <text x="132" y="810" fill="#7f97ad" font-family="PingFang SC, Microsoft YaHei, Arial" font-size="24">产业链研究库 · 2026.06.04</text>
</svg>
