<svg xmlns="http://www.w3.org/2000/svg" viewBox="0 0 1760 1180">
  <defs>
    <pattern id="grid" width="40" height="40" patternUnits="userSpaceOnUse">
      <path d="M40 0 L0 0 0 40" fill="none" stroke="#1e293b" stroke-width="0.6"/>
    </pattern>
    <marker id="arrow-cyan" markerWidth="10" markerHeight="8" refX="9" refY="4" orient="auto">
      <polygon points="0 0, 10 4, 0 8" fill="#22d3ee"/>
    </marker>
    <marker id="arrow-amber" markerWidth="10" markerHeight="8" refX="9" refY="4" orient="auto">
      <polygon points="0 0, 10 4, 0 8" fill="#fbbf24"/>
    </marker>
    <marker id="arrow-green" markerWidth="10" markerHeight="8" refX="9" refY="4" orient="auto">
      <polygon points="0 0, 10 4, 0 8" fill="#34d399"/>
    </marker>
    <style>
      text { font-family: 'Noto Sans SC', 'PingFang SC', 'Microsoft YaHei', Arial, sans-serif; letter-spacing: 0; }
      .title { fill: #f8fafc; font-size: 32px; font-weight: 850; }
      .subtitle { fill: #94a3b8; font-size: 15px; font-weight: 500; }
      .region-title { font-size: 18px; font-weight: 850; }
      .region-sub { fill: #94a3b8; font-size: 12px; font-weight: 500; }
      .node-title { fill: #f8fafc; font-size: 15px; font-weight: 850; }
      .node-sub { fill: #cbd5e1; font-size: 11px; font-weight: 520; }
      .company { fill: #e2e8f0; font-size: 11px; font-weight: 650; }
      .tiny { fill: #94a3b8; font-size: 10px; font-weight: 520; }
      .arrow-label { fill: #bae6fd; font-size: 11px; font-weight: 800; }
      .note-title { fill: #f8fafc; font-size: 14px; font-weight: 850; }
      .note { fill: #cbd5e1; font-size: 11px; font-weight: 520; }
    </style>
  </defs>
  <rect width="1760" height="1180" fill="#0f172a"/>
  <rect width="1760" height="1180" fill="url(#grid)"/>
  <circle cx="870" cy="470" r="360" fill="#0e7490" opacity="0.09"/>
  <circle cx="1460" cy="360" r="300" fill="#f59e0b" opacity="0.07"/>

  <text x="60" y="62" class="title">光刻胶产业链全景与价值传导图</text>
  <text x="60" y="92" class="subtitle">AI芯片扩产驱动ArF/KrF需求，沿“核心原材料 → 光刻胶制造 → 晶圆光刻制程”推动国产替代</text>

  <rect x="50" y="135" width="540" height="650" rx="18" fill="rgba(8,51,68,0.18)" stroke="#22d3ee" stroke-width="1.5" stroke-dasharray="9 6"/>
  <text x="82" y="172" class="region-title" fill="#67e8f9">上游：核心原材料</text>
  <text x="82" y="197" class="region-sub">决定光刻胶性能的基因层</text>

  <rect x="690" y="135" width="390" height="650" rx="18" fill="rgba(120,53,15,0.18)" stroke="#fbbf24" stroke-width="1.5" stroke-dasharray="9 6"/>
  <text x="722" y="172" class="region-title" fill="#fcd34d">中游：光刻胶制造</text>
  <text x="722" y="197" class="region-sub">PCB/LCD/半导体光刻胶金字塔进阶</text>

  <rect x="1180" y="135" width="530" height="650" rx="18" fill="rgba(6,78,59,0.18)" stroke="#34d399" stroke-width="1.5" stroke-dasharray="9 6"/>
  <text x="1212" y="172" class="region-title" fill="#86efac">下游：晶圆制造应用</text>
  <text x="1212" y="197" class="region-sub">AI芯片、存储芯片与先进封装需求</text>

  <!-- Upstream -->
  <g>
    <rect x="82" y="230" width="230" height="106" rx="10" fill="#0f172a"/>
    <rect x="82" y="230" width="230" height="106" rx="10" fill="rgba(8,51,68,0.42)" stroke="#22d3ee" stroke-width="1.7"/>
    <text x="197" y="262" class="node-title" text-anchor="middle">特种气体</text>
    <text x="197" y="287" class="node-sub" text-anchor="middle">光刻气 / ASML双认证</text>
    <text x="197" y="315" class="company" text-anchor="middle">华特气体</text>
  </g>
  <g>
    <rect x="342" y="230" width="215" height="106" rx="10" fill="#0f172a"/>
    <rect x="342" y="230" width="215" height="106" rx="10" fill="rgba(120,53,15,0.35)" stroke="#f59e0b" stroke-width="1.7"/>
    <text x="449" y="262" class="node-title" text-anchor="middle">树脂</text>
    <text x="449" y="287" class="node-sub" text-anchor="middle">KrF/ArF成膜材料</text>
    <text x="449" y="315" class="company" text-anchor="middle">八亿时空</text>
  </g>
  <g>
    <rect x="82" y="372" width="230" height="106" rx="10" fill="#0f172a"/>
    <rect x="82" y="372" width="230" height="106" rx="10" fill="rgba(136,19,55,0.34)" stroke="#fb7185" stroke-width="1.7"/>
    <text x="197" y="404" class="node-title" text-anchor="middle">光引发剂</text>
    <text x="197" y="429" class="node-sub" text-anchor="middle">光敏反应核心</text>
    <text x="197" y="457" class="company" text-anchor="middle">强力新材 · 兴福电子</text>
  </g>
  <g>
    <rect x="342" y="372" width="215" height="106" rx="10" fill="#0f172a"/>
    <rect x="342" y="372" width="215" height="106" rx="10" fill="rgba(59,130,246,0.32)" stroke="#60a5fa" stroke-width="1.7"/>
    <text x="449" y="404" class="node-title" text-anchor="middle">溶剂/单体/添加剂</text>
    <text x="449" y="429" class="node-sub" text-anchor="middle">配方稳定性与良率</text>
    <text x="449" y="457" class="company" text-anchor="middle">精密化工材料</text>
  </g>
  <g>
    <rect x="82" y="514" width="475" height="106" rx="10" fill="#0f172a"/>
    <rect x="82" y="514" width="475" height="106" rx="10" fill="rgba(76,29,149,0.32)" stroke="#a78bfa" stroke-width="1.7"/>
    <text x="320" y="548" class="node-title" text-anchor="middle">半导体材料平台</text>
    <text x="320" y="576" class="node-sub" text-anchor="middle">CMP抛光垫、清洗液、显示材料、光刻胶协同</text>
    <text x="320" y="604" class="company" text-anchor="middle">鼎龙股份 · 上海新阳</text>
  </g>
  <g>
    <rect x="82" y="660" width="475" height="92" rx="12" fill="#0f172a"/>
    <rect x="82" y="660" width="475" height="92" rx="12" fill="rgba(30,41,59,0.55)" stroke="#64748b" stroke-width="1.5"/>
    <text x="112" y="696" class="note-title">上游核心变量</text>
    <text x="112" y="725" class="note">树脂国产化、光引发剂验证、光刻气认证、原材料价格传导</text>
  </g>

  <!-- Midstream -->
  <g>
    <rect x="742" y="235" width="286" height="150" rx="16" fill="#0f172a"/>
    <rect x="742" y="235" width="286" height="150" rx="16" fill="rgba(120,53,15,0.38)" stroke="#fbbf24" stroke-width="2.2"/>
    <text x="885" y="276" class="node-title" font-size="18" text-anchor="middle">半导体光刻胶三巨头</text>
    <text x="885" y="306" class="node-sub" text-anchor="middle">KrF / ArF / 材料包协同</text>
    <text x="885" y="338" class="company" text-anchor="middle">彤程新材 · 南大光电 · 上海新阳</text>
  </g>
  <g>
    <rect x="742" y="424" width="286" height="122" rx="10" fill="#0f172a"/>
    <rect x="742" y="424" width="286" height="122" rx="10" fill="rgba(136,19,55,0.32)" stroke="#fb7185" stroke-width="1.7"/>
    <text x="885" y="459" class="node-title" text-anchor="middle">产品进阶金字塔</text>
    <text x="885" y="490" class="node-sub" text-anchor="middle">PCB → LCD → g/i线 → KrF → ArF → EUV</text>
    <text x="885" y="520" class="company" text-anchor="middle">越往高端，验证周期越长、壁垒越高</text>
  </g>
  <g>
    <rect x="742" y="588" width="286" height="96" rx="10" fill="#0f172a"/>
    <rect x="742" y="588" width="286" height="96" rx="10" fill="rgba(59,130,246,0.32)" stroke="#60a5fa" stroke-width="1.7"/>
    <text x="885" y="623" class="node-title" text-anchor="middle">综合参与者</text>
    <text x="885" y="652" class="node-sub" text-anchor="middle">晶瑞电材：高纯化学品 + 光刻胶</text>
  </g>

  <!-- Downstream -->
  <g>
    <rect x="1215" y="230" width="220" height="112" rx="10" fill="#0f172a"/>
    <rect x="1215" y="230" width="220" height="112" rx="10" fill="rgba(8,51,68,0.42)" stroke="#22d3ee" stroke-width="1.7"/>
    <text x="1325" y="264" class="node-title" text-anchor="middle">晶圆代工</text>
    <text x="1325" y="289" class="node-sub" text-anchor="middle">逻辑芯片 / AI芯片</text>
    <text x="1325" y="317" class="company" text-anchor="middle">先进制程用量提升</text>
  </g>
  <g>
    <rect x="1470" y="230" width="220" height="112" rx="10" fill="#0f172a"/>
    <rect x="1470" y="230" width="220" height="112" rx="10" fill="rgba(6,78,59,0.42)" stroke="#34d399" stroke-width="1.7"/>
    <text x="1580" y="264" class="node-title" text-anchor="middle">存储IDM</text>
    <text x="1580" y="289" class="node-sub" text-anchor="middle">DRAM / NAND / HBM</text>
    <text x="1580" y="317" class="company" text-anchor="middle">多重曝光拉动用量</text>
  </g>
  <g>
    <rect x="1215" y="392" width="475" height="140" rx="12" fill="#0f172a"/>
    <rect x="1215" y="392" width="475" height="140" rx="12" fill="rgba(59,130,246,0.32)" stroke="#60a5fa" stroke-width="1.7"/>
    <text x="1452" y="428" class="node-title" text-anchor="middle">先进封装与显示/PCB应用</text>
    <text x="1452" y="462" class="node-sub" text-anchor="middle">先进封装材料、LCD光刻胶、PCB光刻胶构成基础盘</text>
    <text x="1452" y="502" class="company" text-anchor="middle">半导体光刻胶决定估值弹性</text>
  </g>
  <g>
    <rect x="1215" y="590" width="475" height="92" rx="12" fill="#0f172a"/>
    <rect x="1215" y="590" width="475" height="92" rx="12" fill="rgba(120,53,15,0.26)" stroke="#fbbf24" stroke-width="1.5"/>
    <text x="1245" y="626" class="note-title">下游核心变量</text>
    <text x="1245" y="655" class="note">AI芯片制程迭代、多重曝光、晶圆厂产能利用率与验证窗口</text>
  </g>

  <!-- Arrows -->
  <path d="M557 285 C625 292 680 306 734 312" fill="none" stroke="#22d3ee" stroke-width="3.2" marker-end="url(#arrow-cyan)"/>
  <path d="M557 425 C640 414 690 382 734 338" fill="none" stroke="#fb7185" stroke-width="3.2" marker-end="url(#arrow-amber)"/>
  <path d="M557 565 C640 552 692 512 734 485" fill="none" stroke="#a78bfa" stroke-width="3.2" marker-end="url(#arrow-cyan)"/>
  <text x="642" y="272" class="arrow-label" text-anchor="middle">配方材料</text>
  <path d="M1028 310 C1090 315 1145 302 1206 292" fill="none" stroke="#fbbf24" stroke-width="4" marker-end="url(#arrow-amber)"/>
  <text x="1110" y="306" class="arrow-label" text-anchor="middle">制程导入</text>
  <path d="M1435 286 L1460 286" fill="none" stroke="#34d399" stroke-width="4" marker-end="url(#arrow-green)"/>
  <path d="M1550 560 C1430 838 1120 862 885 742 C638 616 430 725 280 760" fill="none" stroke="#fbbf24" stroke-width="3.5" stroke-dasharray="10 8" marker-end="url(#arrow-amber)"/>
  <text x="1095" y="834" fill="#fcd34d" font-size="13" font-weight="850" text-anchor="middle">需求反向拉动：AI扩产 → ArF/KrF用量提升 → 涨价 → 国产验证加速</text>

  <!-- Bottom logic -->
  <rect x="50" y="845" width="1660" height="272" rx="18" fill="rgba(15,23,42,0.84)" stroke="#334155" stroke-width="1.5"/>
  <text x="82" y="888" class="region-title" fill="#e2e8f0">行业核心逻辑</text>
  <g>
    <rect x="90" y="928" width="370" height="118" rx="12" fill="#0f172a"/>
    <rect x="90" y="928" width="370" height="118" rx="12" fill="rgba(8,51,68,0.42)" stroke="#22d3ee" stroke-width="1.6"/>
    <text x="118" y="964" class="note-title">1. 供需缺口与涨价</text>
    <text x="118" y="994" class="note">日本厂商主导高端供给，ArF/KrF供需紧张</text>
    <text x="118" y="1018" class="note">光刻胶成本占比低，涨价传导相对顺畅</text>
  </g>
  <g>
    <rect x="500" y="928" width="370" height="118" rx="12" fill="#0f172a"/>
    <rect x="500" y="928" width="370" height="118" rx="12" fill="rgba(120,53,15,0.34)" stroke="#fbbf24" stroke-width="1.6"/>
    <text x="528" y="964" class="note-title">2. 国产替代验证窗口</text>
    <text x="528" y="994" class="note">KrF国产化率约10%，ArF不足2%</text>
    <text x="528" y="1018" class="note">大厂开放验证，率先量产企业获得份额</text>
  </g>
  <g>
    <rect x="910" y="928" width="370" height="118" rx="12" fill="#0f172a"/>
    <rect x="910" y="928" width="370" height="118" rx="12" fill="rgba(6,78,59,0.38)" stroke="#34d399" stroke-width="1.6"/>
    <text x="938" y="964" class="note-title">3. AI芯片高端化</text>
    <text x="938" y="994" class="note">先进制程和多重曝光提升ArF胶用量</text>
    <text x="938" y="1018" class="note">高端胶价值占比持续提升</text>
  </g>
  <g>
    <rect x="1320" y="928" width="360" height="118" rx="12" fill="#0f172a"/>
    <rect x="1320" y="928" width="360" height="118" rx="12" fill="rgba(76,29,149,0.34)" stroke="#a78bfa" stroke-width="1.6"/>
    <text x="1348" y="964" class="note-title">4. 全产业链共振</text>
    <text x="1348" y="994" class="note">气体、树脂、光引发剂、光刻胶同步突破</text>
    <text x="1348" y="1018" class="note">平台型材料公司享受材料包协同</text>
  </g>
</svg>
