<svg xmlns="http://www.w3.org/2000/svg" width="1200" height="675" viewBox="0 0 1200 675">
  <defs>
    <linearGradient id="bg" x1="0" y1="0" x2="1" y2="1">
      <stop offset="0%" stop-color="#07111f"/>
      <stop offset="48%" stop-color="#112a3d"/>
      <stop offset="100%" stop-color="#0e1c18"/>
    </linearGradient>
    <linearGradient id="chip" x1="0" y1="0" x2="1" y2="1">
      <stop offset="0%" stop-color="#31d7ff"/>
      <stop offset="55%" stop-color="#5ef2b1"/>
      <stop offset="100%" stop-color="#ffd166"/>
    </linearGradient>
    <filter id="glow" x="-30%" y="-30%" width="160%" height="160%">
      <feGaussianBlur stdDeviation="7" result="blur"/>
      <feMerge><feMergeNode in="blur"/><feMergeNode in="SourceGraphic"/></feMerge>
    </filter>
  </defs>
  <rect width="1200" height="675" fill="url(#bg)"/>
  <g opacity="0.18" stroke="#ffffff" stroke-width="1">
    <path d="M58 120h260M54 205h180M78 482h240M905 135h225M842 514h270"/>
    <path d="M145 72v470M258 94v420M972 72v475M1084 145v390"/>
  </g>
  <g transform="translate(705 128)" filter="url(#glow)">
    <rect x="66" y="45" width="270" height="270" rx="32" fill="#081928" stroke="url(#chip)" stroke-width="5"/>
    <rect x="110" y="89" width="182" height="182" rx="18" fill="#102a3d" stroke="#6df0cb" stroke-width="2"/>
    <g stroke="#31d7ff" stroke-width="9" stroke-linecap="round">
      <path d="M66 92H8M66 137H8M66 182H8M66 227H8M66 272H8"/>
      <path d="M336 92h58M336 137h58M336 182h58M336 227h58M336 272h58"/>
      <path d="M113 45V0M158 45V0M203 45V0M248 45V0M293 45V0"/>
      <path d="M113 315v45M158 315v45M203 315v45M248 315v45M293 315v45"/>
    </g>
    <circle cx="201" cy="180" r="52" fill="none" stroke="#ffd166" stroke-width="7"/>
    <path d="M169 180h64M201 148v64" stroke="#ffd166" stroke-width="7" stroke-linecap="round"/>
  </g>
  <g transform="translate(80 105)">
    <text x="0" y="0" fill="#9ee7ff" font-family="PingFang SC, Microsoft YaHei, Arial, sans-serif" font-size="30" font-weight="700">产业链全景解析</text>
    <text x="0" y="88" fill="#ffffff" font-family="PingFang SC, Microsoft YaHei, Arial, sans-serif" font-size="76" font-weight="800">半导体</text>
    <text x="0" y="152" fill="#d7f7ff" font-family="PingFang SC, Microsoft YaHei, Arial, sans-serif" font-size="34" font-weight="600">从芯片设计到设备材料的全链图谱</text>
    <rect x="0" y="206" width="642" height="2" fill="#5ef2b1" opacity="0.75"/>
    <text x="0" y="264" fill="#f2f7fb" font-family="PingFang SC, Microsoft YaHei, Arial, sans-serif" font-size="29" font-weight="600">设计 → 制造 → 封测 → 设备 → 材料</text>
    <text x="0" y="320" fill="#ffd166" font-family="PingFang SC, Microsoft YaHei, Arial, sans-serif" font-size="27" font-weight="700">AI算力 · 存储周期 · 国产替代 · 大基金三期</text>
  </g>
  <g transform="translate(80 560)" font-family="PingFang SC, Microsoft YaHei, Arial, sans-serif" font-size="24" fill="#d9faff">
    <rect x="0" y="-34" width="178" height="48" rx="10" fill="#16334a" stroke="#2ad0ff"/>
    <text x="20" y="-2">WSTS上修</text>
    <rect x="202" y="-34" width="156" height="48" rx="10" fill="#183d35" stroke="#5ef2b1"/>
    <text x="224" y="-2">存储领跑</text>
    <rect x="382" y="-34" width="160" height="48" rx="10" fill="#3d3218" stroke="#ffd166"/>
    <text x="404" y="-2">并跑加速</text>
  </g>
</svg>
