<svg viewBox="0 0 1600 900" xmlns="http://www.w3.org/2000/svg">
  <defs>
    <pattern id="grid" width="40" height="40" patternUnits="userSpaceOnUse">
      <path d="M40 0H0V40" fill="none" stroke="#1e293b" stroke-width=".6"/>
    </pattern>
    <marker id="arrow-cyan" markerWidth="10" markerHeight="7" refX="9" refY="3.5" orient="auto">
      <polygon points="0 0,10 3.5,0 7" fill="#22d3ee"/>
    </marker>
    <marker id="arrow-amber" markerWidth="10" markerHeight="7" refX="9" refY="3.5" orient="auto">
      <polygon points="0 0,10 3.5,0 7" fill="#fbbf24"/>
    </marker>
    <style>
      text { font-family: "Noto Sans SC","PingFang SC","Microsoft YaHei",sans-serif; }
      .title { fill:#f8fafc;font-size:28px;font-weight:750 }
      .subtitle { fill:#94a3b8;font-size:13px }
      .layer { fill:#e2e8f0;font-size:17px;font-weight:700 }
      .name { fill:#f8fafc;font-size:13px;font-weight:700 }
      .desc { fill:#94a3b8;font-size:10px }
      .company { fill:#cbd5e1;font-size:9px }
      .note { fill:#fde68a;font-size:11px }
    </style>
  </defs>

  <rect width="1600" height="900" fill="#0b1120"/>
  <rect width="1600" height="900" fill="url(#grid)"/>
  <text x="54" y="58" class="title">半导体材料产业链：从高纯原料到芯片制造</text>
  <text x="54" y="86" class="subtitle">基础原料与设备 → 晶圆制造七大材料 → 封装材料 → 晶圆厂与封测厂，认证与量产构成价值兑现主线</text>

  <path d="M330 449H365" stroke="#22d3ee" stroke-width="3" marker-end="url(#arrow-cyan)"/>
  <path d="M1155 449H1190" stroke="#22d3ee" stroke-width="3" marker-end="url(#arrow-cyan)"/>

  <rect x="40" y="122" width="290" height="624" rx="12" fill="#0b1120"/>
  <rect x="40" y="122" width="290" height="624" rx="12" fill="rgba(120,53,15,.2)" stroke="#fbbf24" stroke-width="2"/>
  <text x="64" y="160" class="layer">01 基础原料与设备</text>
  <text x="64" y="184" class="desc">纯度、稳定性与制造能力决定材料上限</text>

  <g>
    <rect x="64" y="224" width="242" height="118" rx="7" fill="#0b1120"/>
    <rect x="64" y="224" width="242" height="118" rx="7" fill="rgba(120,53,15,.3)" stroke="#fbbf24"/>
    <text x="185" y="258" class="name" text-anchor="middle">高纯硅与衬底原料</text>
    <text x="185" y="284" class="desc" text-anchor="middle">电子级多晶硅 · 石英坩埚</text>
    <text x="185" y="310" class="company" text-anchor="middle">晶体生长 · 切磨抛 · 外延</text>
  </g>
  <g>
    <rect x="64" y="374" width="242" height="118" rx="7" fill="#0b1120"/>
    <rect x="64" y="374" width="242" height="118" rx="7" fill="rgba(120,53,15,.3)" stroke="#fbbf24"/>
    <text x="185" y="408" class="name" text-anchor="middle">高纯金属与化工原料</text>
    <text x="185" y="434" class="desc" text-anchor="middle">铜 · 铝 · 钨 · 钽 · 酸碱 · 树脂</text>
    <text x="185" y="460" class="company" text-anchor="middle">纯度等级与批次稳定性</text>
  </g>
  <g>
    <rect x="64" y="524" width="242" height="118" rx="7" fill="#0b1120"/>
    <rect x="64" y="524" width="242" height="118" rx="7" fill="rgba(120,53,15,.3)" stroke="#fbbf24"/>
    <text x="185" y="558" class="name" text-anchor="middle">制造与检测设备</text>
    <text x="185" y="584" class="desc" text-anchor="middle">提纯 · 混配 · 缺陷检测 · 洁净输送</text>
    <text x="185" y="610" class="company" text-anchor="middle">材料量产良率的基础设施</text>
  </g>

  <rect x="375" y="122" width="780" height="624" rx="12" fill="#0b1120"/>
  <rect x="375" y="122" width="780" height="624" rx="12" fill="rgba(8,51,68,.2)" stroke="#22d3ee" stroke-width="2"/>
  <text x="399" y="160" class="layer">02 晶圆制造材料｜核心价值区</text>
  <text x="399" y="184" class="desc">贯穿光刻、沉积、刻蚀、清洗和平坦化，验证周期长、客户黏性高</text>

  <g>
    <rect x="399" y="218" width="224" height="114" rx="7" fill="#0b1120"/>
    <rect x="399" y="218" width="224" height="114" rx="7" fill="rgba(8,51,68,.38)" stroke="#22d3ee"/>
    <text x="511" y="250" class="name" text-anchor="middle">硅片</text>
    <text x="511" y="274" class="desc" text-anchor="middle">300mm抛光片 · 外延片 · SOI</text>
    <text x="511" y="302" class="company" text-anchor="middle">沪硅产业 · TCL中环 · 立昂微</text>
  </g>
  <g>
    <rect x="653" y="218" width="224" height="114" rx="7" fill="#0b1120"/>
    <rect x="653" y="218" width="224" height="114" rx="7" fill="rgba(76,29,149,.34)" stroke="#a78bfa"/>
    <text x="765" y="250" class="name" text-anchor="middle">光刻胶</text>
    <text x="765" y="274" class="desc" text-anchor="middle">KrF · ArF · EUV</text>
    <text x="765" y="302" class="company" text-anchor="middle">彤程 · 南大光电 · 上海新阳 · 鼎龙</text>
  </g>
  <g>
    <rect x="907" y="218" width="224" height="114" rx="7" fill="#0b1120"/>
    <rect x="907" y="218" width="224" height="114" rx="7" fill="rgba(6,78,59,.34)" stroke="#34d399"/>
    <text x="1019" y="250" class="name" text-anchor="middle">电子特气</text>
    <text x="1019" y="274" class="desc" text-anchor="middle">刻蚀 · 成膜 · 清洗 · 掺杂</text>
    <text x="1019" y="302" class="company" text-anchor="middle">中船特气 · 华特气体 · 金宏气体</text>
  </g>
  <g>
    <rect x="399" y="362" width="224" height="114" rx="7" fill="#0b1120"/>
    <rect x="399" y="362" width="224" height="114" rx="7" fill="rgba(6,78,59,.34)" stroke="#34d399"/>
    <text x="511" y="394" class="name" text-anchor="middle">湿电子化学品</text>
    <text x="511" y="418" class="desc" text-anchor="middle">清洗 · 刻蚀 · 显影</text>
    <text x="511" y="446" class="company" text-anchor="middle">晶瑞电材 · 江化微 · 上海新阳</text>
  </g>
  <g>
    <rect x="653" y="362" width="224" height="114" rx="7" fill="#0b1120"/>
    <rect x="653" y="362" width="224" height="114" rx="7" fill="rgba(120,53,15,.32)" stroke="#fbbf24"/>
    <text x="765" y="394" class="name" text-anchor="middle">CMP抛光材料</text>
    <text x="765" y="418" class="desc" text-anchor="middle">抛光液 · 抛光垫 · 平坦化</text>
    <text x="765" y="446" class="company" text-anchor="middle">安集科技 · 鼎龙股份</text>
  </g>
  <g>
    <rect x="907" y="362" width="224" height="114" rx="7" fill="#0b1120"/>
    <rect x="907" y="362" width="224" height="114" rx="7" fill="rgba(136,19,55,.32)" stroke="#fb7185"/>
    <text x="1019" y="394" class="name" text-anchor="middle">溅射靶材</text>
    <text x="1019" y="418" class="desc" text-anchor="middle">PVD高纯金属薄膜沉积</text>
    <text x="1019" y="446" class="company" text-anchor="middle">江丰电子</text>
  </g>
  <g>
    <rect x="525" y="506" width="224" height="114" rx="7" fill="#0b1120"/>
    <rect x="525" y="506" width="224" height="114" rx="7" fill="rgba(76,29,149,.34)" stroke="#a78bfa"/>
    <text x="637" y="538" class="name" text-anchor="middle">光掩模版</text>
    <text x="637" y="562" class="desc" text-anchor="middle">高精度光刻底片 · 制程节点</text>
    <text x="637" y="590" class="company" text-anchor="middle">路维 · 清溢 · 冠石 · 龙图</text>
  </g>
  <g>
    <rect x="779" y="506" width="224" height="114" rx="7" fill="#0b1120"/>
    <rect x="779" y="506" width="224" height="114" rx="7" fill="rgba(8,51,68,.38)" stroke="#60a5fa"/>
    <text x="891" y="538" class="name" text-anchor="middle">前驱体与工艺材料</text>
    <text x="891" y="562" class="desc" text-anchor="middle">ALD/CVD · 电镀液 · 蚀刻液</text>
    <text x="891" y="590" class="company" text-anchor="middle">雅克科技 · 上海新阳 · 南大光电</text>
  </g>

  <rect x="1200" y="122" width="360" height="624" rx="12" fill="#0b1120"/>
  <rect x="1200" y="122" width="360" height="624" rx="12" fill="rgba(6,78,59,.2)" stroke="#34d399" stroke-width="2"/>
  <text x="1224" y="160" class="layer">03 封装材料与下游</text>
  <text x="1224" y="184" class="desc">AI与先进封装提升材料性能和单机价值</text>

  <g>
    <rect x="1224" y="218" width="312" height="104" rx="7" fill="#0b1120"/>
    <rect x="1224" y="218" width="312" height="104" rx="7" fill="rgba(6,78,59,.34)" stroke="#34d399"/>
    <text x="1380" y="250" class="name" text-anchor="middle">封装基板</text>
    <text x="1380" y="274" class="desc" text-anchor="middle">FC-CSP · FC-BGA · 高密度互连</text>
    <text x="1380" y="298" class="company" text-anchor="middle">深南电路 · 兴森科技</text>
  </g>
  <g>
    <rect x="1224" y="346" width="312" height="104" rx="7" fill="#0b1120"/>
    <rect x="1224" y="346" width="312" height="104" rx="7" fill="rgba(6,78,59,.34)" stroke="#34d399"/>
    <text x="1380" y="378" class="name" text-anchor="middle">互连与包封材料</text>
    <text x="1380" y="402" class="desc" text-anchor="middle">引线框架 · 键合丝 · 环氧塑封料</text>
    <text x="1380" y="426" class="company" text-anchor="middle">康强电子 · 华海诚科</text>
  </g>
  <g>
    <rect x="1224" y="492" width="312" height="150" rx="7" fill="#0b1120"/>
    <rect x="1224" y="492" width="312" height="150" rx="7" fill="rgba(8,51,68,.34)" stroke="#22d3ee"/>
    <text x="1380" y="526" class="name" text-anchor="middle">需求与认证终点</text>
    <text x="1380" y="554" class="desc" text-anchor="middle">晶圆代工 · 存储制造 · 封装测试</text>
    <text x="1380" y="582" class="company" text-anchor="middle">中芯 · 华虹 · 长江存储 · 长鑫</text>
    <text x="1380" y="608" class="company" text-anchor="middle">长电 · 通富 · 华天</text>
  </g>

  <path d="M1380 665C1380 790 765 790 765 650" fill="none" stroke="#fbbf24" stroke-width="2.5" stroke-dasharray="9 6" marker-end="url(#arrow-amber)"/>
  <rect x="510" y="766" width="540" height="44" rx="22" fill="#0b1120" stroke="#fbbf24"/>
  <text x="780" y="794" class="note" text-anchor="middle">客户认证 → 批量供货 → 份额提升 → 盈利兑现</text>

  <rect x="40" y="836" width="1520" height="42" rx="7" fill="rgba(136,19,55,.25)" stroke="#fb7185"/>
  <text x="64" y="862" fill="#fecdd3" font-size="11">核心观察：晶圆厂资本开支 · 高端材料制程节点 · 客户认证 · 批量收入 · 良率 · 毛利率 · 经营现金流 · 先进封装订单</text>
</svg>
